M48
;DRILL file {KiCad (5.0.0-rc2-dev-262-gdfd2a8fc4)} date 03/21/18 15:37:05
;FORMAT={-:-/ absolute / inch / decimal}
FMAT,2
INCH,TZ
T1C0.0150
T2C0.1050
%
G90
G05
M72
T1
X5.695Y-3.16
X5.235Y-2.48
X5.58Y-2.87
X5.035Y-3.16
X5.135Y-2.395
X5.74Y-2.83
X5.46Y-2.91
X5.035Y-2.57
X5.965Y-2.47
X5.3Y-2.91
X5.765Y-2.765
X5.44Y-2.64
X5.035Y-3.135
X5.26Y-2.91
X5.615Y-2.765
X5.035Y-2.87
X5.74Y-2.87
X5.035Y-2.93
X5.135Y-2.46
X5.78Y-2.83
X5.26Y-2.87
X5.035Y-3.02
X5.965Y-3.04
X5.245Y-2.74
X5.135Y-2.425
X5.035Y-3.05
X5.135Y-2.365
X5.135Y-2.335
X5.155Y-3.16
X5.135Y-2.305
X5.135Y-2.27
X5.705Y-2.765
X5.735Y-2.765
X5.035Y-2.3
X5.905Y-2.24
X5.66Y-2.83
X5.965Y-2.24
X5.035Y-2.27
X5.275Y-3.16
X5.725Y-3.16
X5.845Y-3.16
X5.035Y-3.08
X5.965Y-3.13
X5.965Y-3.1
X5.965Y-2.98
X5.965Y-2.92
X5.035Y-2.24
X5.575Y-2.24
X5.22Y-2.91
X5.78Y-2.87
X5.035Y-2.39
X5.035Y-2.99
X5.5Y-2.87
X5.395Y-2.24
X5.61Y-2.49
X5.58Y-2.49
X5.55Y-2.49
X5.125Y-2.24
X5.52Y-2.49
X5.52Y-2.55
X5.485Y-2.24
X5.185Y-2.24
X5.155Y-2.24
X5.42Y-2.83
X5.22Y-2.87
X5.38Y-2.87
X5.965Y-2.89
X5.965Y-2.83
X5.42Y-2.87
X5.46Y-2.87
X5.54Y-2.83
X5.54Y-2.87
X5.035Y-2.33
X5.965Y-2.5
X5.965Y-2.53
X5.34Y-2.87
X5.305Y-3.16
X5.5Y-2.91
X5.545Y-3.16
X5.965Y-2.86
X5.635Y-3.16
X5.455Y-2.24
X5.965Y-3.01
X5.095Y-2.24
X5.545Y-2.24
X5.785Y-2.24
X5.035Y-2.48
X5.035Y-2.54
X5.095Y-3.16
X5.965Y-3.07
X5.875Y-3.16
X5.62Y-2.83
X5.52Y-2.52
X5.29Y-2.74
X5.585Y-2.765
X5.675Y-2.765
X5.205Y-2.48
X5.205Y-2.54
X5.965Y-2.44
X5.965Y-2.38
X5.52Y-2.58
X5.165Y-2.48
X5.515Y-3.16
X5.66Y-2.91
X5.58Y-2.91
X5.645Y-2.765
X5.54Y-2.91
X5.38Y-2.91
X5.035Y-2.36
X5.5Y-2.83
X5.58Y-2.83
X5.7Y-2.83
X5.3Y-2.87
X5.965Y-2.41
X5.29Y-2.395
X5.205Y-2.51
X5.62Y-2.87
X5.365Y-3.16
X5.205Y-2.57
X5.455Y-3.16
X5.575Y-3.16
X5.74Y-2.91
X5.78Y-2.91
X5.665Y-3.16
X5.66Y-2.87
X5.545Y-2.4
X5.7Y-2.87
X5.265Y-2.48
X5.48Y-2.64
X5.59Y-2.4
X5.635Y-2.4
X5.33Y-2.395
X5.375Y-2.395
X5.5Y-2.4
X5.035Y-2.9
X5.035Y-2.45
X5.035Y-2.42
X5.035Y-2.96
X5.7Y-2.91
X5.215Y-2.24
X5.935Y-2.24
X5.965Y-2.32
X5.875Y-2.24
X5.965Y-2.35
X5.755Y-2.24
X5.725Y-2.24
X5.605Y-2.24
X5.635Y-2.24
X5.295Y-2.48
X5.245Y-2.24
X5.065Y-3.16
X5.275Y-2.24
X5.965Y-2.28
X5.515Y-2.24
X5.205Y-2.6
X5.035Y-2.84
X5.365Y-2.24
X5.795Y-2.765
X5.335Y-2.24
X5.665Y-2.24
X5.42Y-2.91
X5.62Y-2.91
X5.34Y-2.91
X5.035Y-3.11
X5.52Y-2.64
X5.425Y-2.24
X5.425Y-3.16
X5.3Y-2.83
X5.395Y-3.16
X5.065Y-2.24
X5.965Y-3.16
X5.935Y-3.16
X5.905Y-3.16
X5.815Y-3.16
X5.89Y-2.765
X5.64Y-2.49
X5.855Y-2.765
X5.785Y-3.16
X5.825Y-2.765
X5.52Y-2.61
X5.46Y-2.83
X5.695Y-2.24
X5.34Y-2.83
X5.125Y-3.16
X5.38Y-2.83
X5.965Y-2.95
X5.185Y-3.16
X5.26Y-2.83
X5.215Y-3.16
X5.245Y-3.16
X5.335Y-3.16
X5.485Y-3.16
X5.605Y-3.16
X5.035Y-2.51
X5.845Y-2.24
X5.815Y-2.24
X5.22Y-2.83
X5.755Y-3.16
X5.305Y-2.24
T2
X5.11Y-2.85
X5.89Y-2.85
X5.89Y-2.55
X5.11Y-2.55
T0
M30
