  0
SECTION
  2
HEADER
  9
$ANGBASE
  50
0.0
  9
$ANGDIR
  70
  1
  9
$MEASUREMENT
  70
0
  0
ENDSEC
  0
SECTION
  2
TABLES
  0
TABLE
  2
LTYPE
  70
4
  0
LTYPE
  5
40F
  2
CONTINUOUS
  70
0
  3
Solid line
  72
65
  73
0
  40
0.0
  0
LTYPE
  5
410
  2
DASHDOT
 70
0
  3
Dash Dot ____ _ ____ _
 72
65
 73
4
 40
2.0
 49
1.25
 49
-0.25
 49
0.25
 49
-0.25
  0
LTYPE
  5
411
  2
DASHED
 70
0
  3
Dashed __ __ __ __ __
 72
65
 73
2
 40
0.75
 49
0.5
 49
-0.25
  0
LTYPE
  5
43B
  2
DOTTED
 70
0
  3
Dotted .  .  .  .
 72
65
 73
2
 40
0.2
 49
0.0
 49
-0.2
  0
ENDTAB
  0
TABLE
  2
STYLE
  70
4
  0
STYLE
  2
KICAD
  70
0
  40
0
  41
1
  42
1
  50
0
  71
0
  3
isocp.shx
  0
STYLE
  2
KICADB
  70
0
  40
0
  41
1
  42
1
  50
0
  71
0
  3
isocp.shx
  0
STYLE
  2
KICADI
  70
0
  40
0
  41
1
  42
1
  50
15
  71
0
  3
isocp.shx
  0
STYLE
  2
KICADBI
  70
0
  40
0
  41
1
  42
1
  50
15
  71
0
  3
isocp.shx
  0
ENDTAB
  0
TABLE
  2
LAYER
  70
30
  0
LAYER
  2
BLACK
  70
0
  62
7
  6
CONTINUOUS
  0
LAYER
  2
GRAY1
  70
0
  62
251
  6
CONTINUOUS
  0
LAYER
  2
GRAY2
  70
0
  62
8
  6
CONTINUOUS
  0
LAYER
  2
GRAY3
  70
0
  62
9
  6
CONTINUOUS
  0
LAYER
  2
WHITE
  70
0
  62
7
  6
CONTINUOUS
  0
LAYER
  2
LYELLOW
  70
0
  62
51
  6
CONTINUOUS
  0
LAYER
  2
BLUE1
  70
0
  62
178
  6
CONTINUOUS
  0
LAYER
  2
GREEN1
  70
0
  62
98
  6
CONTINUOUS
  0
LAYER
  2
CYAN1
  70
0
  62
138
  6
CONTINUOUS
  0
LAYER
  2
RED1
  70
0
  62
18
  6
CONTINUOUS
  0
LAYER
  2
MAGENTA1
  70
0
  62
228
  6
CONTINUOUS
  0
LAYER
  2
BROWN1
  70
0
  62
58
  6
CONTINUOUS
  0
LAYER
  2
BLUE2
  70
0
  62
5
  6
CONTINUOUS
  0
LAYER
  2
GREEN2
  70
0
  62
3
  6
CONTINUOUS
  0
LAYER
  2
CYAN2
  70
0
  62
4
  6
CONTINUOUS
  0
LAYER
  2
RED2
  70
0
  62
1
  6
CONTINUOUS
  0
LAYER
  2
MAGENTA2
  70
0
  62
6
  6
CONTINUOUS
  0
LAYER
  2
BROWN2
  70
0
  62
54
  6
CONTINUOUS
  0
LAYER
  2
BLUE3
  70
0
  62
171
  6
CONTINUOUS
  0
LAYER
  2
GREEN3
  70
0
  62
91
  6
CONTINUOUS
  0
LAYER
  2
CYAN3
  70
0
  62
131
  6
CONTINUOUS
  0
LAYER
  2
RED3
  70
0
  62
11
  6
CONTINUOUS
  0
LAYER
  2
MAGENTA3
  70
0
  62
221
  6
CONTINUOUS
  0
LAYER
  2
YELLOW3
  70
0
  62
2
  6
CONTINUOUS
  0
LAYER
  2
BLUE4
  70
0
  62
5
  6
CONTINUOUS
  0
LAYER
  2
GREEN4
  70
0
  62
3
  6
CONTINUOUS
  0
LAYER
  2
CYAN4
  70
0
  62
4
  6
CONTINUOUS
  0
LAYER
  2
RED4
  70
0
  62
1
  6
CONTINUOUS
  0
LAYER
  2
MAGENTA4
  70
0
  62
6
  6
CONTINUOUS
  0
LAYER
  2
YELLOW4
  70
0
  62
2
  6
CONTINUOUS
  0
ENDTAB
  0
ENDSEC
  0
SECTION
  2
ENTITIES
0
LINE
8
BLACK
6
CONTINUOUS
10
151.762
20
-56.3623
11
151.796
21
-56.3906
0
LINE
8
BLACK
6
CONTINUOUS
10
151.796
20
-56.3906
11
151.796
21
-56.3906
0
LINE
8
BLACK
6
CONTINUOUS
10
151.796
20
-56.3906
11
151.994
21
-56.626
0
LINE
8
BLACK
6
CONTINUOUS
10
151.994
20
-56.626
11
152.016
21
-56.6642
0
LINE
8
BLACK
6
CONTINUOUS
10
152.016
20
-56.6642
11
152.016
21
-56.6642
0
LINE
8
BLACK
6
CONTINUOUS
10
152.016
20
-56.6642
11
152.126
21
-56.9689
0
LINE
8
BLACK
6
CONTINUOUS
10
152.126
20
-56.9689
11
152.129
21
-56.9852
0
LINE
8
BLACK
6
CONTINUOUS
10
152.129
20
-56.9852
11
152.134
21
-57.0012
0
LINE
8
BLACK
6
CONTINUOUS
10
152.134
20
-57.0012
11
152.147
21
-57.1555
0
LINE
8
BLACK
6
CONTINUOUS
10
152.147
20
-57.1555
11
152.147
21
-57.1611
0
LINE
8
BLACK
6
CONTINUOUS
10
152.147
20
-57.1611
11
152.148
21
-57.1666
0
LINE
8
BLACK
6
CONTINUOUS
10
152.148
20
-57.1666
11
152.148
21
-64.0842
0
LINE
8
BLACK
6
CONTINUOUS
10
152.148
20
-64.0842
11
152.184
21
-64.0842
0
LINE
8
BLACK
6
CONTINUOUS
10
152.184
20
-64.0842
11
152.184
21
-64.5922
0
LINE
8
BLACK
6
CONTINUOUS
10
152.184
20
-64.5922
11
152.148
21
-64.5922
0
LINE
8
BLACK
6
CONTINUOUS
10
152.148
20
-64.5922
11
152.148
21
-72.5678
0
LINE
8
BLACK
6
CONTINUOUS
10
152.148
20
-72.5678
11
152.184
21
-72.5678
0
LINE
8
BLACK
6
CONTINUOUS
10
152.184
20
-72.5678
11
152.184
21
-73.0758
0
LINE
8
BLACK
6
CONTINUOUS
10
152.184
20
-73.0758
11
152.148
21
-73.0758
0
LINE
8
BLACK
6
CONTINUOUS
10
152.148
20
-73.0758
11
152.148
21
-79.9768
0
LINE
8
BLACK
6
CONTINUOUS
10
152.148
20
-79.9768
11
152.146
21
-79.9877
0
LINE
8
BLACK
6
CONTINUOUS
10
152.146
20
-79.9877
11
152.146
21
-79.9989
0
LINE
8
BLACK
6
CONTINUOUS
10
152.146
20
-79.9989
11
152.086
21
-80.3347
0
LINE
8
BLACK
6
CONTINUOUS
10
152.086
20
-80.3347
11
152.071
21
-80.3761
0
LINE
8
BLACK
6
CONTINUOUS
10
152.071
20
-80.3761
11
151.918
21
-80.6422
0
LINE
8
BLACK
6
CONTINUOUS
10
151.918
20
-80.6422
11
151.889
21
-80.676
0
LINE
8
BLACK
6
CONTINUOUS
10
151.889
20
-80.676
11
151.654
21
-80.8735
0
LINE
8
BLACK
6
CONTINUOUS
10
151.654
20
-80.8735
11
151.638
21
-80.8828
0
LINE
8
BLACK
6
CONTINUOUS
10
151.638
20
-80.8828
11
151.616
21
-80.8956
0
LINE
8
BLACK
6
CONTINUOUS
10
151.616
20
-80.8956
11
151.311
21
-81.0064
0
LINE
8
BLACK
6
CONTINUOUS
10
151.311
20
-81.0064
11
151.295
21
-81.0093
0
LINE
8
BLACK
6
CONTINUOUS
10
151.295
20
-81.0093
11
151.279
21
-81.0136
0
LINE
8
BLACK
6
CONTINUOUS
10
151.279
20
-81.0136
11
151.125
21
-81.0271
0
LINE
8
BLACK
6
CONTINUOUS
10
151.125
20
-81.0271
11
151.119
21
-81.0266
0
LINE
8
BLACK
6
CONTINUOUS
10
151.119
20
-81.0266
11
151.113
21
-81.0276
0
LINE
8
BLACK
6
CONTINUOUS
10
151.113
20
-81.0276
11
128.303
21
-81.0276
0
LINE
8
BLACK
6
CONTINUOUS
10
128.303
20
-81.0276
11
128.292
21
-81.0257
0
LINE
8
BLACK
6
CONTINUOUS
10
128.292
20
-81.0257
11
128.281
21
-81.0257
0
LINE
8
BLACK
6
CONTINUOUS
10
128.281
20
-81.0257
11
127.945
21
-80.9665
0
LINE
8
BLACK
6
CONTINUOUS
10
127.945
20
-80.9665
11
127.904
21
-80.9514
0
LINE
8
BLACK
6
CONTINUOUS
10
127.904
20
-80.9514
11
127.638
21
-80.7977
0
LINE
8
BLACK
6
CONTINUOUS
10
127.638
20
-80.7977
11
127.604
21
-80.7694
0
LINE
8
BLACK
6
CONTINUOUS
10
127.604
20
-80.7694
11
127.406
21
-80.534
0
LINE
8
BLACK
6
CONTINUOUS
10
127.406
20
-80.534
11
127.397
21
-80.5179
0
LINE
8
BLACK
6
CONTINUOUS
10
127.397
20
-80.5179
11
127.384
21
-80.4958
0
LINE
8
BLACK
6
CONTINUOUS
10
127.384
20
-80.4958
11
127.274
21
-80.1911
0
LINE
8
BLACK
6
CONTINUOUS
10
127.274
20
-80.1911
11
127.271
21
-80.1748
0
LINE
8
BLACK
6
CONTINUOUS
10
127.271
20
-80.1748
11
127.266
21
-80.1588
0
LINE
8
BLACK
6
CONTINUOUS
10
127.266
20
-80.1588
11
127.253
21
-80.0045
0
LINE
8
BLACK
6
CONTINUOUS
10
127.253
20
-80.0045
11
127.253
21
-79.9989
0
LINE
8
BLACK
6
CONTINUOUS
10
127.253
20
-79.9989
11
127.252
21
-79.9934
0
LINE
8
BLACK
6
CONTINUOUS
10
127.252
20
-79.9934
11
127.252
21
-73.0758
0
LINE
8
BLACK
6
CONTINUOUS
10
127.252
20
-73.0758
11
127.216
21
-73.0758
0
LINE
8
BLACK
6
CONTINUOUS
10
127.216
20
-73.0758
11
127.216
21
-72.5678
0
LINE
8
BLACK
6
CONTINUOUS
10
127.216
20
-72.5678
11
127.252
21
-72.5678
0
LINE
8
BLACK
6
CONTINUOUS
10
127.252
20
-72.5678
11
127.252
21
-64.5922
0
LINE
8
BLACK
6
CONTINUOUS
10
127.252
20
-64.5922
11
127.216
21
-64.5922
0
LINE
8
BLACK
6
CONTINUOUS
10
127.216
20
-64.5922
11
127.216
21
-64.0842
0
LINE
8
BLACK
6
CONTINUOUS
10
127.216
20
-64.0842
11
127.252
21
-64.0842
0
LINE
8
BLACK
6
CONTINUOUS
10
127.252
20
-64.0842
11
127.252
21
-57.1832
0
LINE
8
BLACK
6
CONTINUOUS
10
127.252
20
-57.1832
11
127.254
21
-57.1723
0
LINE
8
BLACK
6
CONTINUOUS
10
127.254
20
-57.1723
11
127.254
21
-57.1611
0
LINE
8
BLACK
6
CONTINUOUS
10
127.254
20
-57.1611
11
127.314
21
-56.8253
0
LINE
8
BLACK
6
CONTINUOUS
10
127.314
20
-56.8253
11
127.329
21
-56.7839
0
LINE
8
BLACK
6
CONTINUOUS
10
127.329
20
-56.7839
11
127.482
21
-56.5178
0
LINE
8
BLACK
6
CONTINUOUS
10
127.482
20
-56.5178
11
127.484
21
-56.5157
0
LINE
8
BLACK
6
CONTINUOUS
10
127.484
20
-56.5157
11
127.488
21
-56.5108
0
LINE
8
BLACK
6
CONTINUOUS
10
127.488
20
-56.5108
11
127.511
21
-56.484
0
LINE
8
BLACK
6
CONTINUOUS
10
127.511
20
-56.484
11
127.511
21
-56.484
0
LINE
8
BLACK
6
CONTINUOUS
10
127.511
20
-56.484
11
127.746
21
-56.2865
0
LINE
8
BLACK
6
CONTINUOUS
10
127.746
20
-56.2865
11
127.746
21
-56.2865
0
LINE
8
BLACK
6
CONTINUOUS
10
127.746
20
-56.2865
11
127.77
21
-56.2729
0
LINE
8
BLACK
6
CONTINUOUS
10
127.77
20
-56.2729
11
127.784
21
-56.2644
0
LINE
8
BLACK
6
CONTINUOUS
10
127.784
20
-56.2644
11
127.784
21
-56.2644
0
LINE
8
BLACK
6
CONTINUOUS
10
127.784
20
-56.2644
11
128.089
21
-56.1536
0
LINE
8
BLACK
6
CONTINUOUS
10
128.089
20
-56.1536
11
128.105
21
-56.1507
0
LINE
8
BLACK
6
CONTINUOUS
10
128.105
20
-56.1507
11
128.121
21
-56.1464
0
LINE
8
BLACK
6
CONTINUOUS
10
128.121
20
-56.1464
11
128.275
21
-56.1329
0
LINE
8
BLACK
6
CONTINUOUS
10
128.275
20
-56.1329
11
128.281
21
-56.1334
0
LINE
8
BLACK
6
CONTINUOUS
10
128.281
20
-56.1334
11
128.287
21
-56.1324
0
LINE
8
BLACK
6
CONTINUOUS
10
128.287
20
-56.1324
11
151.097
21
-56.1324
0
LINE
8
BLACK
6
CONTINUOUS
10
151.097
20
-56.1324
11
151.108
21
-56.1343
0
LINE
8
BLACK
6
CONTINUOUS
10
151.108
20
-56.1343
11
151.119
21
-56.1343
0
LINE
8
BLACK
6
CONTINUOUS
10
151.119
20
-56.1343
11
151.455
21
-56.1935
0
LINE
8
BLACK
6
CONTINUOUS
10
151.455
20
-56.1935
11
151.496
21
-56.2086
0
LINE
8
BLACK
6
CONTINUOUS
10
151.496
20
-56.2086
11
151.762
21
-56.3623
0
LINE
8
BLACK
6
CONTINUOUS
10
151.762
20
-56.3623
11
151.762
21
-56.3623
0
LINE
8
BLACK
6
CONTINUOUS
10
151.762
20
-56.3623
11
151.762
21
-56.3623
0
LINE
8
BLACK
6
CONTINUOUS
10
149.301
20
-70.8565
11
148.737
21
-71.09
0
LINE
8
BLACK
6
CONTINUOUS
10
148.737
20
-71.09
11
148.306
21
-71.5213
0
LINE
8
BLACK
6
CONTINUOUS
10
148.306
20
-71.5213
11
148.072
21
-72.085
0
LINE
8
BLACK
6
CONTINUOUS
10
148.072
20
-72.085
11
148.072
21
-72.695
0
LINE
8
BLACK
6
CONTINUOUS
10
148.072
20
-72.695
11
148.306
21
-73.2587
0
LINE
8
BLACK
6
CONTINUOUS
10
148.306
20
-73.2587
11
148.737
21
-73.69
0
LINE
8
BLACK
6
CONTINUOUS
10
148.737
20
-73.69
11
149.301
21
-73.9235
0
LINE
8
BLACK
6
CONTINUOUS
10
149.301
20
-73.9235
11
149.911
21
-73.9235
0
LINE
8
BLACK
6
CONTINUOUS
10
149.911
20
-73.9235
11
150.475
21
-73.69
0
LINE
8
BLACK
6
CONTINUOUS
10
150.475
20
-73.69
11
150.906
21
-73.2587
0
LINE
8
BLACK
6
CONTINUOUS
10
150.906
20
-73.2587
11
150.982
21
-73.0758
0
LINE
8
BLACK
6
CONTINUOUS
10
150.982
20
-73.0758
11
148.374
21
-73.0758
0
LINE
8
BLACK
6
CONTINUOUS
10
148.374
20
-73.0758
11
148.374
21
-72.5678
0
LINE
8
BLACK
6
CONTINUOUS
10
148.374
20
-72.5678
11
151.139
21
-72.5678
0
LINE
8
BLACK
6
CONTINUOUS
10
151.139
20
-72.5678
11
151.139
21
-72.085
0
LINE
8
BLACK
6
CONTINUOUS
10
151.139
20
-72.085
11
150.906
21
-71.5213
0
LINE
8
BLACK
6
CONTINUOUS
10
150.906
20
-71.5213
11
150.475
21
-71.09
0
LINE
8
BLACK
6
CONTINUOUS
10
150.475
20
-71.09
11
149.911
21
-70.8565
0
LINE
8
BLACK
6
CONTINUOUS
10
149.911
20
-70.8565
11
149.301
21
-70.8565
0
LINE
8
BLACK
6
CONTINUOUS
10
129.489
20
-70.8565
11
128.925
21
-71.09
0
LINE
8
BLACK
6
CONTINUOUS
10
128.925
20
-71.09
11
128.494
21
-71.5213
0
LINE
8
BLACK
6
CONTINUOUS
10
128.494
20
-71.5213
11
128.261
21
-72.085
0
LINE
8
BLACK
6
CONTINUOUS
10
128.261
20
-72.085
11
128.261
21
-72.5678
0
LINE
8
BLACK
6
CONTINUOUS
10
128.261
20
-72.5678
11
131.026
21
-72.5678
0
LINE
8
BLACK
6
CONTINUOUS
10
131.026
20
-72.5678
11
131.026
21
-73.0758
0
LINE
8
BLACK
6
CONTINUOUS
10
131.026
20
-73.0758
11
128.418
21
-73.0758
0
LINE
8
BLACK
6
CONTINUOUS
10
128.418
20
-73.0758
11
128.494
21
-73.2587
0
LINE
8
BLACK
6
CONTINUOUS
10
128.494
20
-73.2587
11
128.925
21
-73.69
0
LINE
8
BLACK
6
CONTINUOUS
10
128.925
20
-73.69
11
129.489
21
-73.9235
0
LINE
8
BLACK
6
CONTINUOUS
10
129.489
20
-73.9235
11
130.099
21
-73.9235
0
LINE
8
BLACK
6
CONTINUOUS
10
130.099
20
-73.9235
11
130.663
21
-73.69
0
LINE
8
BLACK
6
CONTINUOUS
10
130.663
20
-73.69
11
131.094
21
-73.2587
0
LINE
8
BLACK
6
CONTINUOUS
10
131.094
20
-73.2587
11
131.327
21
-72.695
0
LINE
8
BLACK
6
CONTINUOUS
10
131.327
20
-72.695
11
131.327
21
-72.085
0
LINE
8
BLACK
6
CONTINUOUS
10
131.327
20
-72.085
11
131.094
21
-71.5213
0
LINE
8
BLACK
6
CONTINUOUS
10
131.094
20
-71.5213
11
130.663
21
-71.09
0
LINE
8
BLACK
6
CONTINUOUS
10
130.663
20
-71.09
11
130.099
21
-70.8565
0
LINE
8
BLACK
6
CONTINUOUS
10
130.099
20
-70.8565
11
129.489
21
-70.8565
0
LINE
8
BLACK
6
CONTINUOUS
10
149.301
20
-63.2365
11
148.737
21
-63.47
0
LINE
8
BLACK
6
CONTINUOUS
10
148.737
20
-63.47
11
148.306
21
-63.9013
0
LINE
8
BLACK
6
CONTINUOUS
10
148.306
20
-63.9013
11
148.072
21
-64.465
0
LINE
8
BLACK
6
CONTINUOUS
10
148.072
20
-64.465
11
148.072
21
-65.075
0
LINE
8
BLACK
6
CONTINUOUS
10
148.072
20
-65.075
11
148.306
21
-65.6387
0
LINE
8
BLACK
6
CONTINUOUS
10
148.306
20
-65.6387
11
148.737
21
-66.07
0
LINE
8
BLACK
6
CONTINUOUS
10
148.737
20
-66.07
11
149.301
21
-66.3035
0
LINE
8
BLACK
6
CONTINUOUS
10
149.301
20
-66.3035
11
149.911
21
-66.3035
0
LINE
8
BLACK
6
CONTINUOUS
10
149.911
20
-66.3035
11
150.475
21
-66.07
0
LINE
8
BLACK
6
CONTINUOUS
10
150.475
20
-66.07
11
150.906
21
-65.6387
0
LINE
8
BLACK
6
CONTINUOUS
10
150.906
20
-65.6387
11
151.139
21
-65.075
0
LINE
8
BLACK
6
CONTINUOUS
10
151.139
20
-65.075
11
151.139
21
-64.5922
0
LINE
8
BLACK
6
CONTINUOUS
10
151.139
20
-64.5922
11
148.374
21
-64.5922
0
LINE
8
BLACK
6
CONTINUOUS
10
148.374
20
-64.5922
11
148.374
21
-64.0842
0
LINE
8
BLACK
6
CONTINUOUS
10
148.374
20
-64.0842
11
150.982
21
-64.0842
0
LINE
8
BLACK
6
CONTINUOUS
10
150.982
20
-64.0842
11
150.906
21
-63.9013
0
LINE
8
BLACK
6
CONTINUOUS
10
150.906
20
-63.9013
11
150.475
21
-63.47
0
LINE
8
BLACK
6
CONTINUOUS
10
150.475
20
-63.47
11
149.911
21
-63.2365
0
LINE
8
BLACK
6
CONTINUOUS
10
149.911
20
-63.2365
11
149.301
21
-63.2365
0
LINE
8
BLACK
6
CONTINUOUS
10
129.489
20
-63.2365
11
128.925
21
-63.47
0
LINE
8
BLACK
6
CONTINUOUS
10
128.925
20
-63.47
11
128.494
21
-63.9013
0
LINE
8
BLACK
6
CONTINUOUS
10
128.494
20
-63.9013
11
128.418
21
-64.0842
0
LINE
8
BLACK
6
CONTINUOUS
10
128.418
20
-64.0842
11
131.026
21
-64.0842
0
LINE
8
BLACK
6
CONTINUOUS
10
131.026
20
-64.0842
11
131.026
21
-64.5922
0
LINE
8
BLACK
6
CONTINUOUS
10
131.026
20
-64.5922
11
128.261
21
-64.5922
0
LINE
8
BLACK
6
CONTINUOUS
10
128.261
20
-64.5922
11
128.261
21
-65.075
0
LINE
8
BLACK
6
CONTINUOUS
10
128.261
20
-65.075
11
128.494
21
-65.6387
0
LINE
8
BLACK
6
CONTINUOUS
10
128.494
20
-65.6387
11
128.925
21
-66.07
0
LINE
8
BLACK
6
CONTINUOUS
10
128.925
20
-66.07
11
129.489
21
-66.3035
0
LINE
8
BLACK
6
CONTINUOUS
10
129.489
20
-66.3035
11
130.099
21
-66.3035
0
LINE
8
BLACK
6
CONTINUOUS
10
130.099
20
-66.3035
11
130.663
21
-66.07
0
LINE
8
BLACK
6
CONTINUOUS
10
130.663
20
-66.07
11
131.094
21
-65.6387
0
LINE
8
BLACK
6
CONTINUOUS
10
131.094
20
-65.6387
11
131.327
21
-65.075
0
LINE
8
BLACK
6
CONTINUOUS
10
131.327
20
-65.075
11
131.327
21
-64.465
0
LINE
8
BLACK
6
CONTINUOUS
10
131.327
20
-64.465
11
131.094
21
-63.9013
0
LINE
8
BLACK
6
CONTINUOUS
10
131.094
20
-63.9013
11
130.663
21
-63.47
0
LINE
8
BLACK
6
CONTINUOUS
10
130.663
20
-63.47
11
130.099
21
-63.2365
0
LINE
8
BLACK
6
CONTINUOUS
10
130.099
20
-63.2365
11
129.489
21
-63.2365
  0
ENDSEC
  0
EOF
