G04 #@! TF.GenerationSoftware,KiCad,Pcbnew,(5.0.0-rc2-dev-262-gdfd2a8fc4)*
G04 #@! TF.CreationDate,2018-03-21T15:36:15-07:00*
G04 #@! TF.ProjectId,BaseBandAmp_03202018,4261736542616E64416D705F30333230,rev?*
G04 #@! TF.SameCoordinates,Original*
G04 #@! TF.FileFunction,Copper,L2,Bot,Signal*
G04 #@! TF.FilePolarity,Positive*
%FSLAX46Y46*%
G04 Gerber Fmt 4.6, Leading zero omitted, Abs format (unit mm)*
G04 Created by KiCad (PCBNEW (5.0.0-rc2-dev-262-gdfd2a8fc4)) date 03/21/18 15:36:15*
%MOMM*%
%LPD*%
G01*
G04 APERTURE LIST*
%ADD10C,0.508000*%
%ADD11R,3.810000X0.508000*%
%ADD12C,0.254000*%
G04 APERTURE END LIST*
D10*
X143129000Y-60960000D03*
X141986000Y-60960000D03*
X140843000Y-60960000D03*
X139700000Y-60960000D03*
X136525000Y-60833000D03*
X135382000Y-60833000D03*
X134366000Y-60833000D03*
D11*
X150279100Y-64338200D03*
X150279100Y-72821800D03*
D10*
X138176000Y-67056000D03*
X139192000Y-67056000D03*
X131191000Y-62992000D03*
X127889000Y-79629000D03*
X134493000Y-62992000D03*
X133731000Y-62992000D03*
X132969000Y-62992000D03*
X146812000Y-73914000D03*
X145796000Y-73914000D03*
X144780000Y-73914000D03*
X143764000Y-73914000D03*
X142748000Y-73914000D03*
X141732000Y-73914000D03*
X140716000Y-73914000D03*
X139700000Y-73914000D03*
X138684000Y-73914000D03*
X137668000Y-73914000D03*
X136652000Y-73914000D03*
X135636000Y-73914000D03*
X134620000Y-73914000D03*
X133604000Y-73914000D03*
X132588000Y-73914000D03*
X146812000Y-72898000D03*
X145796000Y-72898000D03*
X144780000Y-72898000D03*
X143764000Y-72898000D03*
X142748000Y-72898000D03*
X141732000Y-72898000D03*
X140716000Y-72898000D03*
X139700000Y-72898000D03*
X138684000Y-72898000D03*
X137668000Y-72898000D03*
X136652000Y-72898000D03*
X135636000Y-72898000D03*
X134620000Y-72898000D03*
X133604000Y-72898000D03*
X132588000Y-72898000D03*
X146812000Y-71882000D03*
X145796000Y-71882000D03*
X144780000Y-71882000D03*
X143764000Y-71882000D03*
X142748000Y-71882000D03*
X141732000Y-71882000D03*
X140716000Y-71882000D03*
X139700000Y-71882000D03*
X138684000Y-71882000D03*
X137668000Y-71882000D03*
X136652000Y-71882000D03*
X135636000Y-71882000D03*
X134620000Y-71882000D03*
X133604000Y-71882000D03*
X132588000Y-71882000D03*
X140208000Y-67056000D03*
X140208000Y-66294000D03*
X140208000Y-65532000D03*
X140208000Y-64770000D03*
X140208000Y-64008000D03*
X149606000Y-70231000D03*
X148717000Y-70231000D03*
X147955000Y-70231000D03*
X147193000Y-70231000D03*
X146431000Y-70231000D03*
X145669000Y-70231000D03*
X144907000Y-70231000D03*
X144145000Y-70231000D03*
X143383000Y-70231000D03*
X142621000Y-70231000D03*
X141859000Y-70231000D03*
X134366000Y-69596000D03*
X133223000Y-69596000D03*
X130429000Y-57658000D03*
X130429000Y-58547000D03*
X130429000Y-59309000D03*
X130429000Y-60071000D03*
X130429000Y-60833000D03*
X130429000Y-61595000D03*
X130429000Y-62484000D03*
X132207000Y-62992000D03*
X132207000Y-63754000D03*
X132207000Y-64516000D03*
X132207000Y-65278000D03*
X132207000Y-66040000D03*
X151511000Y-57912000D03*
X151511000Y-58928000D03*
X151511000Y-59690000D03*
X151511000Y-60452000D03*
X151511000Y-61214000D03*
X151511000Y-61976000D03*
X151511000Y-62738000D03*
X151511000Y-63500000D03*
X151511000Y-64262000D03*
X151511000Y-71882000D03*
X151511000Y-72644000D03*
X151511000Y-73406000D03*
X151511000Y-74168000D03*
X151511000Y-74930000D03*
X151511000Y-75692000D03*
X151511000Y-76454000D03*
X151511000Y-77216000D03*
X151511000Y-77978000D03*
X151511000Y-78740000D03*
X151511000Y-79502000D03*
X151511000Y-80264000D03*
X150749000Y-80264000D03*
X149987000Y-80264000D03*
X149225000Y-80264000D03*
X148463000Y-80264000D03*
X147701000Y-80264000D03*
X146939000Y-80264000D03*
X146177000Y-80264000D03*
X145415000Y-80264000D03*
X144653000Y-80264000D03*
X143891000Y-80264000D03*
X143129000Y-80264000D03*
X142367000Y-80264000D03*
X141605000Y-80264000D03*
X140843000Y-80264000D03*
X140081000Y-80264000D03*
X139319000Y-80264000D03*
X138557000Y-80264000D03*
X137795000Y-80264000D03*
X137033000Y-80264000D03*
X136271000Y-80264000D03*
X135509000Y-80264000D03*
X134747000Y-80264000D03*
X133985000Y-80264000D03*
X133223000Y-80264000D03*
X132461000Y-80264000D03*
X131699000Y-80264000D03*
X130937000Y-80264000D03*
X130175000Y-80264000D03*
X129413000Y-80264000D03*
X128651000Y-80264000D03*
X127889000Y-80264000D03*
X127889000Y-78994000D03*
X127889000Y-78232000D03*
X127889000Y-77470000D03*
X127889000Y-76708000D03*
X127889000Y-75946000D03*
X127889000Y-75184000D03*
X127889000Y-74422000D03*
X127889000Y-73660000D03*
X127889000Y-72898000D03*
X127889000Y-72136000D03*
X127889000Y-65278000D03*
X127889000Y-64516000D03*
X127889000Y-63754000D03*
X127889000Y-62992000D03*
X127889000Y-62230000D03*
X127889000Y-61468000D03*
X127889000Y-60706000D03*
X127889000Y-59944000D03*
X127889000Y-59182000D03*
X127889000Y-58420000D03*
X127889000Y-57658000D03*
X151511000Y-56896000D03*
X150749000Y-56896000D03*
X149987000Y-56896000D03*
X149225000Y-56896000D03*
X148463000Y-56896000D03*
X147701000Y-56896000D03*
X146939000Y-56896000D03*
X146177000Y-56896000D03*
X145415000Y-56896000D03*
X144653000Y-56896000D03*
X143891000Y-56896000D03*
X143129000Y-56896000D03*
X142367000Y-56896000D03*
X141605000Y-56896000D03*
X140843000Y-56896000D03*
X140081000Y-56896000D03*
X139319000Y-56896000D03*
X138557000Y-56896000D03*
X137795000Y-56896000D03*
X137033000Y-56896000D03*
X136271000Y-56896000D03*
X135509000Y-56896000D03*
X134747000Y-56896000D03*
X133985000Y-56896000D03*
X133223000Y-56896000D03*
X132461000Y-56896000D03*
X131699000Y-56896000D03*
X130937000Y-56896000D03*
X130175000Y-56896000D03*
X129413000Y-56896000D03*
X128651000Y-56896000D03*
X143256000Y-63246000D03*
X142494000Y-63246000D03*
X141732000Y-63246000D03*
X140970000Y-63246000D03*
X140208000Y-63246000D03*
X127889000Y-56896000D03*
D11*
X129120900Y-72821800D03*
X129120900Y-64338200D03*
D12*
G36*
X151432600Y-56318609D02*
X151698703Y-56472244D01*
X151896214Y-56707627D01*
X152007103Y-57012293D01*
X152020600Y-57166561D01*
X152020601Y-79976802D01*
X151961391Y-80312600D01*
X151807755Y-80578705D01*
X151572372Y-80776214D01*
X151267707Y-80887103D01*
X151113438Y-80900600D01*
X128303193Y-80900600D01*
X127967400Y-80841391D01*
X127701295Y-80687755D01*
X127503786Y-80452372D01*
X127392897Y-80147707D01*
X127379400Y-79993438D01*
X127379400Y-72059706D01*
X128133500Y-72059706D01*
X128133500Y-72720294D01*
X128386296Y-73330598D01*
X128853402Y-73797704D01*
X129463706Y-74050500D01*
X130124294Y-74050500D01*
X130734598Y-73797704D01*
X131201704Y-73330598D01*
X131454500Y-72720294D01*
X131454500Y-72059706D01*
X147945500Y-72059706D01*
X147945500Y-72720294D01*
X148198296Y-73330598D01*
X148665402Y-73797704D01*
X149275706Y-74050500D01*
X149936294Y-74050500D01*
X150546598Y-73797704D01*
X151013704Y-73330598D01*
X151266500Y-72720294D01*
X151266500Y-72059706D01*
X151013704Y-71449402D01*
X150546598Y-70982296D01*
X149936294Y-70729500D01*
X149275706Y-70729500D01*
X148665402Y-70982296D01*
X148198296Y-71449402D01*
X147945500Y-72059706D01*
X131454500Y-72059706D01*
X131201704Y-71449402D01*
X130734598Y-70982296D01*
X130124294Y-70729500D01*
X129463706Y-70729500D01*
X128853402Y-70982296D01*
X128386296Y-71449402D01*
X128133500Y-72059706D01*
X127379400Y-72059706D01*
X127379400Y-64439706D01*
X128133500Y-64439706D01*
X128133500Y-65100294D01*
X128386296Y-65710598D01*
X128853402Y-66177704D01*
X129463706Y-66430500D01*
X130124294Y-66430500D01*
X130734598Y-66177704D01*
X131201704Y-65710598D01*
X131454500Y-65100294D01*
X131454500Y-64439706D01*
X147945500Y-64439706D01*
X147945500Y-65100294D01*
X148198296Y-65710598D01*
X148665402Y-66177704D01*
X149275706Y-66430500D01*
X149936294Y-66430500D01*
X150546598Y-66177704D01*
X151013704Y-65710598D01*
X151266500Y-65100294D01*
X151266500Y-64439706D01*
X151013704Y-63829402D01*
X150546598Y-63362296D01*
X149936294Y-63109500D01*
X149275706Y-63109500D01*
X148665402Y-63362296D01*
X148198296Y-63829402D01*
X147945500Y-64439706D01*
X131454500Y-64439706D01*
X131201704Y-63829402D01*
X130734598Y-63362296D01*
X130124294Y-63109500D01*
X129463706Y-63109500D01*
X128853402Y-63362296D01*
X128386296Y-63829402D01*
X128133500Y-64439706D01*
X127379400Y-64439706D01*
X127379400Y-57183192D01*
X127438609Y-56847400D01*
X127592244Y-56581297D01*
X127827627Y-56383786D01*
X128132293Y-56272897D01*
X128286561Y-56259400D01*
X151096808Y-56259400D01*
X151432600Y-56318609D01*
X151432600Y-56318609D01*
G37*
X151432600Y-56318609D02*
X151698703Y-56472244D01*
X151896214Y-56707627D01*
X152007103Y-57012293D01*
X152020600Y-57166561D01*
X152020601Y-79976802D01*
X151961391Y-80312600D01*
X151807755Y-80578705D01*
X151572372Y-80776214D01*
X151267707Y-80887103D01*
X151113438Y-80900600D01*
X128303193Y-80900600D01*
X127967400Y-80841391D01*
X127701295Y-80687755D01*
X127503786Y-80452372D01*
X127392897Y-80147707D01*
X127379400Y-79993438D01*
X127379400Y-72059706D01*
X128133500Y-72059706D01*
X128133500Y-72720294D01*
X128386296Y-73330598D01*
X128853402Y-73797704D01*
X129463706Y-74050500D01*
X130124294Y-74050500D01*
X130734598Y-73797704D01*
X131201704Y-73330598D01*
X131454500Y-72720294D01*
X131454500Y-72059706D01*
X147945500Y-72059706D01*
X147945500Y-72720294D01*
X148198296Y-73330598D01*
X148665402Y-73797704D01*
X149275706Y-74050500D01*
X149936294Y-74050500D01*
X150546598Y-73797704D01*
X151013704Y-73330598D01*
X151266500Y-72720294D01*
X151266500Y-72059706D01*
X151013704Y-71449402D01*
X150546598Y-70982296D01*
X149936294Y-70729500D01*
X149275706Y-70729500D01*
X148665402Y-70982296D01*
X148198296Y-71449402D01*
X147945500Y-72059706D01*
X131454500Y-72059706D01*
X131201704Y-71449402D01*
X130734598Y-70982296D01*
X130124294Y-70729500D01*
X129463706Y-70729500D01*
X128853402Y-70982296D01*
X128386296Y-71449402D01*
X128133500Y-72059706D01*
X127379400Y-72059706D01*
X127379400Y-64439706D01*
X128133500Y-64439706D01*
X128133500Y-65100294D01*
X128386296Y-65710598D01*
X128853402Y-66177704D01*
X129463706Y-66430500D01*
X130124294Y-66430500D01*
X130734598Y-66177704D01*
X131201704Y-65710598D01*
X131454500Y-65100294D01*
X131454500Y-64439706D01*
X147945500Y-64439706D01*
X147945500Y-65100294D01*
X148198296Y-65710598D01*
X148665402Y-66177704D01*
X149275706Y-66430500D01*
X149936294Y-66430500D01*
X150546598Y-66177704D01*
X151013704Y-65710598D01*
X151266500Y-65100294D01*
X151266500Y-64439706D01*
X151013704Y-63829402D01*
X150546598Y-63362296D01*
X149936294Y-63109500D01*
X149275706Y-63109500D01*
X148665402Y-63362296D01*
X148198296Y-63829402D01*
X147945500Y-64439706D01*
X131454500Y-64439706D01*
X131201704Y-63829402D01*
X130734598Y-63362296D01*
X130124294Y-63109500D01*
X129463706Y-63109500D01*
X128853402Y-63362296D01*
X128386296Y-63829402D01*
X128133500Y-64439706D01*
X127379400Y-64439706D01*
X127379400Y-57183192D01*
X127438609Y-56847400D01*
X127592244Y-56581297D01*
X127827627Y-56383786D01*
X128132293Y-56272897D01*
X128286561Y-56259400D01*
X151096808Y-56259400D01*
X151432600Y-56318609D01*
M02*
