G04 #@! TF.GenerationSoftware,KiCad,Pcbnew,(5.0.0-rc2-dev-262-gdfd2a8fc4)*
G04 #@! TF.CreationDate,2018-03-21T15:36:15-07:00*
G04 #@! TF.ProjectId,BaseBandAmp_03202018,4261736542616E64416D705F30333230,rev?*
G04 #@! TF.SameCoordinates,Original*
G04 #@! TF.FileFunction,Copper,L1,Top,Signal*
G04 #@! TF.FilePolarity,Positive*
%FSLAX46Y46*%
G04 Gerber Fmt 4.6, Leading zero omitted, Abs format (unit mm)*
G04 Created by KiCad (PCBNEW (5.0.0-rc2-dev-262-gdfd2a8fc4)) date 03/21/18 15:36:15*
%MOMM*%
%LPD*%
G01*
G04 APERTURE LIST*
%ADD10R,2.540000X2.540000*%
%ADD11C,2.794000*%
%ADD12C,0.508000*%
%ADD13R,0.500000X0.900000*%
%ADD14R,0.635000X0.635000*%
%ADD15R,1.270000X2.032000*%
%ADD16R,3.810000X0.508000*%
%ADD17R,0.350000X0.300000*%
%ADD18R,0.300000X0.350000*%
%ADD19R,1.198880X1.000760*%
%ADD20R,0.800100X1.000760*%
%ADD21R,1.000760X1.501140*%
%ADD22R,1.998980X2.999740*%
%ADD23C,0.749300*%
%ADD24C,0.100000*%
%ADD25R,1.000760X1.198880*%
%ADD26R,1.000760X0.800100*%
%ADD27R,0.700000X1.300000*%
%ADD28R,0.900000X0.500000*%
%ADD29C,0.250000*%
%ADD30C,0.254000*%
%ADD31C,0.127000*%
G04 APERTURE END LIST*
D10*
X132461000Y-58801000D03*
D11*
X129794000Y-72390000D03*
X129794000Y-64770000D03*
X149606000Y-64770000D03*
X149606000Y-72390000D03*
D12*
X143129000Y-60960000D03*
X141986000Y-60960000D03*
X140843000Y-60960000D03*
X139700000Y-60960000D03*
X136525000Y-60833000D03*
X135382000Y-60833000D03*
X134366000Y-60833000D03*
D13*
X137541000Y-59817000D03*
X139041000Y-59817000D03*
D14*
X145288000Y-66929000D03*
X145288000Y-61849000D03*
D15*
X151752300Y-68580000D03*
D16*
X150279100Y-64338200D03*
X150279100Y-72821800D03*
D12*
X138176000Y-67056000D03*
X139192000Y-67056000D03*
D17*
X138176000Y-62357000D03*
X138176000Y-61797000D03*
X138938000Y-61797000D03*
X138938000Y-62357000D03*
D14*
X136779000Y-61849000D03*
X136779000Y-66929000D03*
D12*
X131191000Y-62992000D03*
X127889000Y-79629000D03*
X134493000Y-62992000D03*
X133731000Y-62992000D03*
X132969000Y-62992000D03*
X146812000Y-73914000D03*
X145796000Y-73914000D03*
X144780000Y-73914000D03*
X143764000Y-73914000D03*
X142748000Y-73914000D03*
X141732000Y-73914000D03*
X140716000Y-73914000D03*
X139700000Y-73914000D03*
X138684000Y-73914000D03*
X137668000Y-73914000D03*
X136652000Y-73914000D03*
X135636000Y-73914000D03*
X134620000Y-73914000D03*
X133604000Y-73914000D03*
X132588000Y-73914000D03*
X146812000Y-72898000D03*
X145796000Y-72898000D03*
X144780000Y-72898000D03*
X143764000Y-72898000D03*
X142748000Y-72898000D03*
X141732000Y-72898000D03*
X140716000Y-72898000D03*
X139700000Y-72898000D03*
X138684000Y-72898000D03*
X137668000Y-72898000D03*
X136652000Y-72898000D03*
X135636000Y-72898000D03*
X134620000Y-72898000D03*
X133604000Y-72898000D03*
X132588000Y-72898000D03*
X146812000Y-71882000D03*
X145796000Y-71882000D03*
X144780000Y-71882000D03*
X143764000Y-71882000D03*
X142748000Y-71882000D03*
X141732000Y-71882000D03*
X140716000Y-71882000D03*
X139700000Y-71882000D03*
X138684000Y-71882000D03*
X137668000Y-71882000D03*
X136652000Y-71882000D03*
X135636000Y-71882000D03*
X134620000Y-71882000D03*
X133604000Y-71882000D03*
X132588000Y-71882000D03*
X140208000Y-67056000D03*
X140208000Y-66294000D03*
X140208000Y-65532000D03*
X140208000Y-64770000D03*
X140208000Y-64008000D03*
X149606000Y-70231000D03*
X148717000Y-70231000D03*
X147955000Y-70231000D03*
X147193000Y-70231000D03*
X146431000Y-70231000D03*
X145669000Y-70231000D03*
X144907000Y-70231000D03*
X144145000Y-70231000D03*
X143383000Y-70231000D03*
X142621000Y-70231000D03*
X141859000Y-70231000D03*
X134366000Y-69596000D03*
X133223000Y-69596000D03*
X130429000Y-57658000D03*
X130429000Y-58547000D03*
X130429000Y-59309000D03*
X130429000Y-60071000D03*
X130429000Y-60833000D03*
X130429000Y-61595000D03*
X130429000Y-62484000D03*
X132207000Y-62992000D03*
X132207000Y-63754000D03*
X132207000Y-64516000D03*
X132207000Y-65278000D03*
X132207000Y-66040000D03*
X151511000Y-57912000D03*
X151511000Y-58928000D03*
X151511000Y-59690000D03*
X151511000Y-60452000D03*
X151511000Y-61214000D03*
X151511000Y-61976000D03*
X151511000Y-62738000D03*
X151511000Y-63500000D03*
X151511000Y-64262000D03*
X151511000Y-71882000D03*
X151511000Y-72644000D03*
X151511000Y-73406000D03*
X151511000Y-74168000D03*
X151511000Y-74930000D03*
X151511000Y-75692000D03*
X151511000Y-76454000D03*
X151511000Y-77216000D03*
X151511000Y-77978000D03*
X151511000Y-78740000D03*
X151511000Y-79502000D03*
X151511000Y-80264000D03*
X150749000Y-80264000D03*
X149987000Y-80264000D03*
X149225000Y-80264000D03*
X148463000Y-80264000D03*
X147701000Y-80264000D03*
X146939000Y-80264000D03*
X146177000Y-80264000D03*
X145415000Y-80264000D03*
X144653000Y-80264000D03*
X143891000Y-80264000D03*
X143129000Y-80264000D03*
X142367000Y-80264000D03*
X141605000Y-80264000D03*
X140843000Y-80264000D03*
X140081000Y-80264000D03*
X139319000Y-80264000D03*
X138557000Y-80264000D03*
X137795000Y-80264000D03*
X137033000Y-80264000D03*
X136271000Y-80264000D03*
X135509000Y-80264000D03*
X134747000Y-80264000D03*
X133985000Y-80264000D03*
X133223000Y-80264000D03*
X132461000Y-80264000D03*
X131699000Y-80264000D03*
X130937000Y-80264000D03*
X130175000Y-80264000D03*
X129413000Y-80264000D03*
X128651000Y-80264000D03*
X127889000Y-80264000D03*
X127889000Y-78994000D03*
X127889000Y-78232000D03*
X127889000Y-77470000D03*
X127889000Y-76708000D03*
X127889000Y-75946000D03*
X127889000Y-75184000D03*
X127889000Y-74422000D03*
X127889000Y-73660000D03*
X127889000Y-72898000D03*
X127889000Y-72136000D03*
X127889000Y-65278000D03*
X127889000Y-64516000D03*
X127889000Y-63754000D03*
X127889000Y-62992000D03*
X127889000Y-62230000D03*
X127889000Y-61468000D03*
X127889000Y-60706000D03*
X127889000Y-59944000D03*
X127889000Y-59182000D03*
X127889000Y-58420000D03*
X127889000Y-57658000D03*
X151511000Y-56896000D03*
X150749000Y-56896000D03*
X149987000Y-56896000D03*
X149225000Y-56896000D03*
X148463000Y-56896000D03*
X147701000Y-56896000D03*
X146939000Y-56896000D03*
X146177000Y-56896000D03*
X145415000Y-56896000D03*
X144653000Y-56896000D03*
X143891000Y-56896000D03*
X143129000Y-56896000D03*
X142367000Y-56896000D03*
X141605000Y-56896000D03*
X140843000Y-56896000D03*
X140081000Y-56896000D03*
X139319000Y-56896000D03*
X138557000Y-56896000D03*
X137795000Y-56896000D03*
X137033000Y-56896000D03*
X136271000Y-56896000D03*
X135509000Y-56896000D03*
X134747000Y-56896000D03*
X133985000Y-56896000D03*
X133223000Y-56896000D03*
X132461000Y-56896000D03*
X131699000Y-56896000D03*
X130937000Y-56896000D03*
X130175000Y-56896000D03*
X129413000Y-56896000D03*
X128651000Y-56896000D03*
X143256000Y-63246000D03*
X142494000Y-63246000D03*
X141732000Y-63246000D03*
X140970000Y-63246000D03*
X140208000Y-63246000D03*
D17*
X148082000Y-62409000D03*
X148082000Y-61849000D03*
X147320000Y-62409000D03*
X147320000Y-61849000D03*
D12*
X127889000Y-56896000D03*
D18*
X128423000Y-66548000D03*
X127863000Y-66548000D03*
D17*
X132207000Y-69316000D03*
X132207000Y-69876000D03*
D18*
X135916000Y-69469000D03*
X135356000Y-69469000D03*
D17*
X140081000Y-70078000D03*
X140081000Y-70638000D03*
X146050000Y-69368000D03*
X146050000Y-68808000D03*
D18*
X151384000Y-66548000D03*
X150824000Y-66548000D03*
D15*
X127647700Y-68580000D03*
D16*
X129120900Y-72821800D03*
X129120900Y-64338200D03*
D19*
X129501900Y-69778880D03*
D20*
X131251960Y-67381120D03*
X131251960Y-69778880D03*
X129352040Y-67381120D03*
D21*
X132483860Y-68018660D03*
X133985000Y-68018660D03*
X135486140Y-68018660D03*
D22*
X133985000Y-65067180D03*
D23*
X133985000Y-66916300D03*
D24*
G36*
X134985760Y-66541650D02*
X134485380Y-67290950D01*
X133484620Y-67290950D01*
X132984240Y-66541650D01*
X134985760Y-66541650D01*
X134985760Y-66541650D01*
G37*
D19*
X136994900Y-70667880D03*
D20*
X138744960Y-68270120D03*
X138744960Y-70667880D03*
X136845040Y-68270120D03*
D21*
X140865860Y-68780660D03*
X142367000Y-68780660D03*
X143868140Y-68780660D03*
D22*
X142367000Y-65829180D03*
D23*
X142367000Y-67678300D03*
D24*
G36*
X143367760Y-67303650D02*
X142867380Y-68052950D01*
X141866620Y-68052950D01*
X141366240Y-67303650D01*
X143367760Y-67303650D01*
X143367760Y-67303650D01*
G37*
D25*
X149534880Y-68999100D03*
D26*
X147137120Y-67249040D03*
X149534880Y-67249040D03*
X147137120Y-69148960D03*
D27*
X134620000Y-58420000D03*
X136520000Y-58420000D03*
D28*
X132969000Y-60464000D03*
X132969000Y-61964000D03*
D29*
X128423000Y-66548000D02*
X128518920Y-66548000D01*
X128518920Y-66548000D02*
X129352040Y-67381120D01*
X127647700Y-68580000D02*
X127647700Y-66763300D01*
X127647700Y-66763300D02*
X127863000Y-66548000D01*
D30*
X127863000Y-68427000D02*
X127889000Y-68453000D01*
X127889000Y-68453000D02*
X127647700Y-68580000D01*
X132207000Y-69316000D02*
X132207000Y-68453000D01*
X132207000Y-68453000D02*
X132483860Y-68018660D01*
X132207000Y-69876000D02*
X131471000Y-69876000D01*
X131471000Y-69876000D02*
X131445000Y-69850000D01*
X131445000Y-69850000D02*
X131251960Y-69778880D01*
X136845040Y-68270120D02*
X136845040Y-68640960D01*
X136845040Y-68640960D02*
X136017000Y-69469000D01*
X136017000Y-69469000D02*
X135890000Y-69469000D01*
X135890000Y-69469000D02*
X135916000Y-69469000D01*
D29*
X136779000Y-66929000D02*
X136575800Y-66929000D01*
X136575800Y-66929000D02*
X135486140Y-68018660D01*
D30*
X135356000Y-69469000D02*
X135356000Y-68352000D01*
X135356000Y-68352000D02*
X135509000Y-68199000D01*
X135509000Y-68199000D02*
X135486140Y-68018660D01*
D29*
X146050000Y-69368000D02*
X147167000Y-69368000D01*
X147167000Y-69368000D02*
X147193000Y-69342000D01*
X147193000Y-69342000D02*
X147137120Y-69148960D01*
X151752300Y-68580000D02*
X151752300Y-66916300D01*
X151752300Y-66916300D02*
X151384000Y-66548000D01*
X140081000Y-69723000D02*
X140462000Y-69342000D01*
X140462000Y-69342000D02*
X140865860Y-68780660D01*
X140081000Y-70078000D02*
X140081000Y-69723000D01*
X140081000Y-70638000D02*
X138837000Y-70638000D01*
X138837000Y-70638000D02*
X138811000Y-70612000D01*
X138811000Y-70612000D02*
X138744960Y-70667880D01*
X150824000Y-66548000D02*
X150235920Y-66548000D01*
X150235920Y-66548000D02*
X149534880Y-67249040D01*
X132969000Y-60464000D02*
X132969000Y-59309000D01*
X132969000Y-59309000D02*
X132461000Y-58801000D01*
X134620000Y-59563000D02*
X134874000Y-59817000D01*
X134874000Y-59817000D02*
X137541000Y-59817000D01*
X134620000Y-58420000D02*
X134620000Y-59563000D01*
X134620000Y-58420000D02*
X132842000Y-58420000D01*
X132842000Y-58420000D02*
X132461000Y-58801000D01*
X145288000Y-66929000D02*
X145288000Y-68707000D01*
D30*
X145288000Y-68707000D02*
X144018000Y-68707000D01*
X145415000Y-68707000D02*
X145288000Y-68707000D01*
X145415000Y-68707000D02*
X145923000Y-68707000D01*
X145923000Y-68707000D02*
X145992000Y-68776000D01*
X145992000Y-68776000D02*
X146050000Y-68808000D01*
X144018000Y-68707000D02*
X143868140Y-68780660D01*
X145992000Y-68776000D02*
X146050000Y-68808000D01*
D29*
X145992000Y-68776000D02*
X146050000Y-68834000D01*
X146050000Y-68834000D02*
X146050000Y-68808000D01*
X132969000Y-61964000D02*
X136664000Y-61964000D01*
X136664000Y-61964000D02*
X136779000Y-61849000D01*
X143823500Y-59817000D02*
X145288000Y-61281500D01*
X139041000Y-59817000D02*
X143823500Y-59817000D01*
X145288000Y-61281500D02*
X145288000Y-61849000D01*
X147320000Y-61849000D02*
X148082000Y-61849000D01*
X138176000Y-61797000D02*
X138938000Y-61797000D01*
X136779000Y-61849000D02*
X138124000Y-61849000D01*
X138124000Y-61849000D02*
X138176000Y-61797000D01*
X146558000Y-61849000D02*
X147320000Y-61849000D01*
X145288000Y-61849000D02*
X146506000Y-61849000D01*
D31*
G36*
X151454655Y-56258018D02*
X151740151Y-56422851D01*
X151952054Y-56675386D01*
X152069633Y-56998431D01*
X152084100Y-57163793D01*
X152084100Y-65976500D01*
X150114000Y-65976500D01*
X150089700Y-65981334D01*
X150069099Y-65995099D01*
X150055334Y-66015700D01*
X150050500Y-66040000D01*
X150050500Y-66204649D01*
X149955827Y-66267907D01*
X149934152Y-66300346D01*
X149654170Y-66580328D01*
X149034500Y-66580328D01*
X148931688Y-66600779D01*
X148844527Y-66659017D01*
X148786289Y-66746178D01*
X148765838Y-66848990D01*
X148765838Y-67649090D01*
X148786289Y-67751902D01*
X148844527Y-67839063D01*
X148931688Y-67897301D01*
X149034500Y-67917752D01*
X150035260Y-67917752D01*
X150050500Y-67914721D01*
X150050500Y-68209160D01*
X149832695Y-68209160D01*
X149785070Y-68256785D01*
X149785070Y-68699380D01*
X150035260Y-68699380D01*
X150035260Y-69298820D01*
X149785070Y-69298820D01*
X149785070Y-69741415D01*
X149832695Y-69789040D01*
X150050500Y-69789040D01*
X150050500Y-70993000D01*
X150055334Y-71017300D01*
X150069099Y-71037901D01*
X150089700Y-71051666D01*
X150114000Y-71056500D01*
X152084101Y-71056500D01*
X152084101Y-79982356D01*
X152021981Y-80334656D01*
X151857149Y-80620151D01*
X151604613Y-80832054D01*
X151281570Y-80949633D01*
X151116207Y-80964100D01*
X128297638Y-80964100D01*
X127945344Y-80901981D01*
X127659849Y-80737149D01*
X127447946Y-80484613D01*
X127330367Y-80161570D01*
X127315900Y-79996207D01*
X127315900Y-71564500D01*
X128778000Y-71564500D01*
X128802300Y-71559666D01*
X128822901Y-71545901D01*
X128836666Y-71525300D01*
X128841500Y-71501000D01*
X128841500Y-70965695D01*
X136204960Y-70965695D01*
X136204960Y-71206153D01*
X136233962Y-71276169D01*
X136287550Y-71329758D01*
X136357567Y-71358760D01*
X136647555Y-71358760D01*
X136695180Y-71311135D01*
X136695180Y-70918070D01*
X137294620Y-70918070D01*
X137294620Y-71311135D01*
X137342245Y-71358760D01*
X137632233Y-71358760D01*
X137702250Y-71329758D01*
X137755838Y-71276169D01*
X137784840Y-71206153D01*
X137784840Y-70965695D01*
X137737215Y-70918070D01*
X137294620Y-70918070D01*
X136695180Y-70918070D01*
X136252585Y-70918070D01*
X136204960Y-70965695D01*
X128841500Y-70965695D01*
X128841500Y-70460205D01*
X128864567Y-70469760D01*
X129154555Y-70469760D01*
X129202180Y-70422135D01*
X129202180Y-70029070D01*
X129801620Y-70029070D01*
X129801620Y-70422135D01*
X129849245Y-70469760D01*
X130139233Y-70469760D01*
X130209250Y-70440758D01*
X130262838Y-70387169D01*
X130291840Y-70317153D01*
X130291840Y-70076695D01*
X130244215Y-70029070D01*
X129801620Y-70029070D01*
X129202180Y-70029070D01*
X128910400Y-70029070D01*
X128910400Y-69528690D01*
X129202180Y-69528690D01*
X129202180Y-69135625D01*
X129801620Y-69135625D01*
X129801620Y-69528690D01*
X130244215Y-69528690D01*
X130291840Y-69481065D01*
X130291840Y-69278500D01*
X130583248Y-69278500D01*
X130583248Y-70279260D01*
X130603699Y-70382072D01*
X130661937Y-70469233D01*
X130749098Y-70527471D01*
X130851910Y-70547922D01*
X131652010Y-70547922D01*
X131754822Y-70527471D01*
X131841983Y-70469233D01*
X131900221Y-70382072D01*
X131920672Y-70279260D01*
X131920672Y-70268521D01*
X131929188Y-70274211D01*
X132032000Y-70294662D01*
X132382000Y-70294662D01*
X132484812Y-70274211D01*
X132571973Y-70215973D01*
X132629679Y-70129607D01*
X136204960Y-70129607D01*
X136204960Y-70370065D01*
X136252585Y-70417690D01*
X136695180Y-70417690D01*
X136695180Y-70024625D01*
X137294620Y-70024625D01*
X137294620Y-70417690D01*
X137737215Y-70417690D01*
X137784840Y-70370065D01*
X137784840Y-70167500D01*
X138076248Y-70167500D01*
X138076248Y-71168260D01*
X138096699Y-71271072D01*
X138154937Y-71358233D01*
X138242098Y-71416471D01*
X138344910Y-71436922D01*
X139145010Y-71436922D01*
X139247822Y-71416471D01*
X139334983Y-71358233D01*
X139393221Y-71271072D01*
X139413672Y-71168260D01*
X139413672Y-71026500D01*
X139788654Y-71026500D01*
X139803188Y-71036211D01*
X139906000Y-71056662D01*
X140256000Y-71056662D01*
X140358812Y-71036211D01*
X140445973Y-70977973D01*
X140504211Y-70890812D01*
X140524662Y-70788000D01*
X140524662Y-70488000D01*
X140504211Y-70385188D01*
X140486045Y-70358000D01*
X140504211Y-70330812D01*
X140524662Y-70228000D01*
X140524662Y-69928000D01*
X140508197Y-69845225D01*
X140553530Y-69799892D01*
X141366240Y-69799892D01*
X141469052Y-69779441D01*
X141556213Y-69721203D01*
X141614451Y-69634042D01*
X141634902Y-69531230D01*
X141634902Y-68030090D01*
X141614451Y-67927278D01*
X141556213Y-67840117D01*
X141469052Y-67781879D01*
X141366240Y-67761428D01*
X140365480Y-67761428D01*
X140262668Y-67781879D01*
X140175507Y-67840117D01*
X140117269Y-67927278D01*
X140096818Y-68030090D01*
X140096818Y-69157760D01*
X139833347Y-69421232D01*
X139800908Y-69442907D01*
X139715042Y-69571415D01*
X139693687Y-69678773D01*
X139684889Y-69723000D01*
X139692500Y-69761262D01*
X139692500Y-69773238D01*
X139657789Y-69825188D01*
X139637338Y-69928000D01*
X139637338Y-70228000D01*
X139641615Y-70249500D01*
X139413672Y-70249500D01*
X139413672Y-70167500D01*
X139393221Y-70064688D01*
X139334983Y-69977527D01*
X139247822Y-69919289D01*
X139145010Y-69898838D01*
X138344910Y-69898838D01*
X138242098Y-69919289D01*
X138154937Y-69977527D01*
X138096699Y-70064688D01*
X138076248Y-70167500D01*
X137784840Y-70167500D01*
X137784840Y-70129607D01*
X137755838Y-70059591D01*
X137702250Y-70006002D01*
X137632233Y-69977000D01*
X137342245Y-69977000D01*
X137294620Y-70024625D01*
X136695180Y-70024625D01*
X136647555Y-69977000D01*
X136357567Y-69977000D01*
X136287550Y-70006002D01*
X136233962Y-70059591D01*
X136204960Y-70129607D01*
X132629679Y-70129607D01*
X132630211Y-70128812D01*
X132650662Y-70026000D01*
X132650662Y-69726000D01*
X132630211Y-69623188D01*
X132612045Y-69596000D01*
X132630211Y-69568812D01*
X132650662Y-69466000D01*
X132650662Y-69166000D01*
X132630211Y-69063188D01*
X132613309Y-69037892D01*
X132984240Y-69037892D01*
X133087052Y-69017441D01*
X133174213Y-68959203D01*
X133232451Y-68872042D01*
X133252902Y-68769230D01*
X133252902Y-67268090D01*
X133232451Y-67165278D01*
X133174213Y-67078117D01*
X133087052Y-67019879D01*
X132984240Y-66999428D01*
X131983480Y-66999428D01*
X131880668Y-67019879D01*
X131842510Y-67045375D01*
X131842510Y-66809618D01*
X131828746Y-66809618D01*
X131813508Y-66772831D01*
X131759920Y-66719242D01*
X131689903Y-66690240D01*
X131499610Y-66690240D01*
X131451985Y-66737865D01*
X131451985Y-67130930D01*
X131652010Y-67130930D01*
X131652010Y-67631310D01*
X131451985Y-67631310D01*
X131451985Y-68024375D01*
X131499610Y-68072000D01*
X131689903Y-68072000D01*
X131714818Y-68061680D01*
X131714818Y-68769230D01*
X131735269Y-68872042D01*
X131793507Y-68959203D01*
X131816500Y-68974566D01*
X131816500Y-69014231D01*
X131790046Y-69053824D01*
X131754822Y-69030289D01*
X131652010Y-69009838D01*
X130851910Y-69009838D01*
X130749098Y-69030289D01*
X130661937Y-69088527D01*
X130603699Y-69175688D01*
X130583248Y-69278500D01*
X130291840Y-69278500D01*
X130291840Y-69240607D01*
X130262838Y-69170591D01*
X130209250Y-69117002D01*
X130139233Y-69088000D01*
X129849245Y-69088000D01*
X129801620Y-69135625D01*
X129202180Y-69135625D01*
X129154555Y-69088000D01*
X128864567Y-69088000D01*
X128841500Y-69097555D01*
X128841500Y-68124581D01*
X128849178Y-68129711D01*
X128951990Y-68150162D01*
X129752090Y-68150162D01*
X129854902Y-68129711D01*
X129942063Y-68071473D01*
X130000301Y-67984312D01*
X130020752Y-67881500D01*
X130020752Y-67678935D01*
X130661410Y-67678935D01*
X130661410Y-67919393D01*
X130690412Y-67989409D01*
X130744000Y-68042998D01*
X130814017Y-68072000D01*
X131004310Y-68072000D01*
X131051935Y-68024375D01*
X131051935Y-67631310D01*
X130709035Y-67631310D01*
X130661410Y-67678935D01*
X130020752Y-67678935D01*
X130020752Y-66880740D01*
X130013215Y-66842847D01*
X130661410Y-66842847D01*
X130661410Y-67083305D01*
X130709035Y-67130930D01*
X131051935Y-67130930D01*
X131051935Y-66737865D01*
X131004310Y-66690240D01*
X130814017Y-66690240D01*
X130744000Y-66719242D01*
X130690412Y-66772831D01*
X130661410Y-66842847D01*
X130013215Y-66842847D01*
X130000301Y-66777928D01*
X129942063Y-66690767D01*
X129854902Y-66632529D01*
X129752090Y-66612078D01*
X129132419Y-66612078D01*
X128841500Y-66321159D01*
X128841500Y-65686305D01*
X132795010Y-65686305D01*
X132795010Y-66604943D01*
X132824012Y-66674959D01*
X132877600Y-66728548D01*
X132947617Y-66757550D01*
X133437630Y-66757550D01*
X133485255Y-66709925D01*
X133485255Y-65638680D01*
X134484745Y-65638680D01*
X134484745Y-66709925D01*
X134532370Y-66757550D01*
X135022383Y-66757550D01*
X135092400Y-66728548D01*
X135145988Y-66674959D01*
X135174990Y-66604943D01*
X135174990Y-65686305D01*
X135127365Y-65638680D01*
X134484745Y-65638680D01*
X133485255Y-65638680D01*
X132842635Y-65638680D01*
X132795010Y-65686305D01*
X128841500Y-65686305D01*
X128841500Y-65532000D01*
X128836666Y-65507700D01*
X128822901Y-65487099D01*
X128802300Y-65473334D01*
X128778000Y-65468500D01*
X127315900Y-65468500D01*
X127315900Y-63529417D01*
X132795010Y-63529417D01*
X132795010Y-64448055D01*
X132842635Y-64495680D01*
X133485255Y-64495680D01*
X133485255Y-63424435D01*
X134484745Y-63424435D01*
X134484745Y-64495680D01*
X135127365Y-64495680D01*
X135174990Y-64448055D01*
X135174990Y-63529417D01*
X135145988Y-63459401D01*
X135092400Y-63405812D01*
X135022383Y-63376810D01*
X134532370Y-63376810D01*
X134484745Y-63424435D01*
X133485255Y-63424435D01*
X133437630Y-63376810D01*
X132947617Y-63376810D01*
X132877600Y-63405812D01*
X132824012Y-63459401D01*
X132795010Y-63529417D01*
X127315900Y-63529417D01*
X127315900Y-57531000D01*
X130922338Y-57531000D01*
X130922338Y-60071000D01*
X130942789Y-60173812D01*
X131001027Y-60260973D01*
X131088188Y-60319211D01*
X131191000Y-60339662D01*
X132250338Y-60339662D01*
X132250338Y-60714000D01*
X132270500Y-60815359D01*
X132270500Y-61612641D01*
X132250338Y-61714000D01*
X132250338Y-62214000D01*
X132270789Y-62316812D01*
X132329027Y-62403973D01*
X132416188Y-62462211D01*
X132519000Y-62482662D01*
X133419000Y-62482662D01*
X133521812Y-62462211D01*
X133608973Y-62403973D01*
X133643365Y-62352500D01*
X135318500Y-62352500D01*
X135318500Y-66548000D01*
X135323334Y-66572300D01*
X135337099Y-66592901D01*
X135357700Y-66606666D01*
X135382000Y-66611500D01*
X136192838Y-66611500D01*
X136192838Y-66762540D01*
X135955950Y-66999428D01*
X134985760Y-66999428D01*
X134882948Y-67019879D01*
X134795787Y-67078117D01*
X134737549Y-67165278D01*
X134717098Y-67268090D01*
X134717098Y-68769230D01*
X134737549Y-68872042D01*
X134795787Y-68959203D01*
X134882948Y-69017441D01*
X134965500Y-69033862D01*
X134965500Y-69179647D01*
X134957789Y-69191188D01*
X134937338Y-69294000D01*
X134937338Y-69644000D01*
X134957789Y-69746812D01*
X135016027Y-69833973D01*
X135103188Y-69892211D01*
X135206000Y-69912662D01*
X135506000Y-69912662D01*
X135608812Y-69892211D01*
X135636000Y-69874045D01*
X135663188Y-69892211D01*
X135766000Y-69912662D01*
X136066000Y-69912662D01*
X136168812Y-69892211D01*
X136255973Y-69833973D01*
X136314211Y-69746812D01*
X136319802Y-69718707D01*
X136320324Y-69717925D01*
X136999089Y-69039162D01*
X137245090Y-69039162D01*
X137347902Y-69018711D01*
X137435063Y-68960473D01*
X137493301Y-68873312D01*
X137513752Y-68770500D01*
X137513752Y-68567935D01*
X138154410Y-68567935D01*
X138154410Y-68808393D01*
X138183412Y-68878409D01*
X138237000Y-68931998D01*
X138307017Y-68961000D01*
X138497310Y-68961000D01*
X138544935Y-68913375D01*
X138544935Y-68520310D01*
X138944985Y-68520310D01*
X138944985Y-68913375D01*
X138992610Y-68961000D01*
X139182903Y-68961000D01*
X139252920Y-68931998D01*
X139306508Y-68878409D01*
X139335510Y-68808393D01*
X139335510Y-68567935D01*
X139287885Y-68520310D01*
X138944985Y-68520310D01*
X138544935Y-68520310D01*
X138202035Y-68520310D01*
X138154410Y-68567935D01*
X137513752Y-68567935D01*
X137513752Y-67769740D01*
X137506215Y-67731847D01*
X138154410Y-67731847D01*
X138154410Y-67972305D01*
X138202035Y-68019930D01*
X138544935Y-68019930D01*
X138544935Y-67626865D01*
X138944985Y-67626865D01*
X138944985Y-68019930D01*
X139287885Y-68019930D01*
X139335510Y-67972305D01*
X139335510Y-67731847D01*
X139306508Y-67661831D01*
X139252920Y-67608242D01*
X139182903Y-67579240D01*
X138992610Y-67579240D01*
X138944985Y-67626865D01*
X138544935Y-67626865D01*
X138497310Y-67579240D01*
X138307017Y-67579240D01*
X138237000Y-67608242D01*
X138183412Y-67661831D01*
X138154410Y-67731847D01*
X137506215Y-67731847D01*
X137493301Y-67666928D01*
X137435063Y-67579767D01*
X137347902Y-67521529D01*
X137245090Y-67501078D01*
X137167304Y-67501078D01*
X137199312Y-67494711D01*
X137286473Y-67436473D01*
X137344711Y-67349312D01*
X137365162Y-67246500D01*
X137365162Y-66611500D01*
X137795000Y-66611500D01*
X137819300Y-66606666D01*
X137839901Y-66592901D01*
X137853666Y-66572300D01*
X137858500Y-66548000D01*
X137858500Y-66448305D01*
X141177010Y-66448305D01*
X141177010Y-67366943D01*
X141206012Y-67436959D01*
X141259600Y-67490548D01*
X141329617Y-67519550D01*
X141819630Y-67519550D01*
X141867255Y-67471925D01*
X141867255Y-66400680D01*
X142866745Y-66400680D01*
X142866745Y-67471925D01*
X142914370Y-67519550D01*
X143404383Y-67519550D01*
X143474400Y-67490548D01*
X143527988Y-67436959D01*
X143556990Y-67366943D01*
X143556990Y-66448305D01*
X143509365Y-66400680D01*
X142866745Y-66400680D01*
X141867255Y-66400680D01*
X141224635Y-66400680D01*
X141177010Y-66448305D01*
X137858500Y-66448305D01*
X137858500Y-64291417D01*
X141177010Y-64291417D01*
X141177010Y-65210055D01*
X141224635Y-65257680D01*
X141867255Y-65257680D01*
X141867255Y-64186435D01*
X142866745Y-64186435D01*
X142866745Y-65257680D01*
X143509365Y-65257680D01*
X143556990Y-65210055D01*
X143556990Y-64291417D01*
X143527988Y-64221401D01*
X143474400Y-64167812D01*
X143404383Y-64138810D01*
X142914370Y-64138810D01*
X142866745Y-64186435D01*
X141867255Y-64186435D01*
X141819630Y-64138810D01*
X141329617Y-64138810D01*
X141259600Y-64167812D01*
X141206012Y-64221401D01*
X141177010Y-64291417D01*
X137858500Y-64291417D01*
X137858500Y-62928502D01*
X138001000Y-62928502D01*
X138001000Y-62697500D01*
X138040875Y-62697500D01*
X138088500Y-62649875D01*
X138088500Y-62432000D01*
X138263500Y-62432000D01*
X138263500Y-62649875D01*
X138311125Y-62697500D01*
X138388893Y-62697500D01*
X138458909Y-62668498D01*
X138512498Y-62614910D01*
X138541500Y-62544893D01*
X138541500Y-62479625D01*
X138572500Y-62479625D01*
X138572500Y-62544893D01*
X138601502Y-62614910D01*
X138655091Y-62668498D01*
X138725107Y-62697500D01*
X138802875Y-62697500D01*
X138850500Y-62649875D01*
X138850500Y-62432000D01*
X139025500Y-62432000D01*
X139025500Y-62649875D01*
X139073125Y-62697500D01*
X139150893Y-62697500D01*
X139220909Y-62668498D01*
X139274498Y-62614910D01*
X139303500Y-62544893D01*
X139303500Y-62479625D01*
X139255875Y-62432000D01*
X139025500Y-62432000D01*
X138850500Y-62432000D01*
X138620125Y-62432000D01*
X138572500Y-62479625D01*
X138541500Y-62479625D01*
X138493875Y-62432000D01*
X138263500Y-62432000D01*
X138088500Y-62432000D01*
X138001000Y-62432000D01*
X138001000Y-62282000D01*
X138088500Y-62282000D01*
X138088500Y-62238049D01*
X138124000Y-62245111D01*
X138162262Y-62237500D01*
X138162263Y-62237500D01*
X138263500Y-62217363D01*
X138263500Y-62282000D01*
X138493875Y-62282000D01*
X138541500Y-62234375D01*
X138541500Y-62207000D01*
X138572500Y-62207000D01*
X138572500Y-62234375D01*
X138620125Y-62282000D01*
X138850500Y-62282000D01*
X138850500Y-62215662D01*
X139025500Y-62215662D01*
X139025500Y-62282000D01*
X139255875Y-62282000D01*
X139303500Y-62234375D01*
X139303500Y-62207000D01*
X139509502Y-62207000D01*
X139509502Y-62016500D01*
X139367837Y-62016500D01*
X139381662Y-61947000D01*
X139381662Y-61647000D01*
X139361211Y-61544188D01*
X139302973Y-61457027D01*
X139215812Y-61398789D01*
X139113000Y-61378338D01*
X138763000Y-61378338D01*
X138660188Y-61398789D01*
X138645654Y-61408500D01*
X138468346Y-61408500D01*
X138453812Y-61398789D01*
X138351000Y-61378338D01*
X138001000Y-61378338D01*
X137898188Y-61398789D01*
X137811027Y-61457027D01*
X137808706Y-61460500D01*
X137351039Y-61460500D01*
X137344711Y-61428688D01*
X137286473Y-61341527D01*
X137199312Y-61283289D01*
X137096500Y-61262838D01*
X136461500Y-61262838D01*
X136358688Y-61283289D01*
X136271527Y-61341527D01*
X136213289Y-61428688D01*
X136192838Y-61531500D01*
X136192838Y-61575500D01*
X133667500Y-61575500D01*
X133667500Y-60815359D01*
X133687662Y-60714000D01*
X133687662Y-60339662D01*
X133731000Y-60339662D01*
X133833812Y-60319211D01*
X133920973Y-60260973D01*
X133979211Y-60173812D01*
X133999662Y-60071000D01*
X133999662Y-59626500D01*
X134236520Y-59626500D01*
X134252157Y-59705110D01*
X134254042Y-59714585D01*
X134339908Y-59843093D01*
X134372346Y-59864768D01*
X134572232Y-60064654D01*
X134593907Y-60097093D01*
X134722415Y-60182959D01*
X134835737Y-60205500D01*
X134873999Y-60213111D01*
X134912261Y-60205500D01*
X137022338Y-60205500D01*
X137022338Y-60267000D01*
X137042789Y-60369812D01*
X137101027Y-60456973D01*
X137188188Y-60515211D01*
X137291000Y-60535662D01*
X137791000Y-60535662D01*
X137892359Y-60515500D01*
X138689641Y-60515500D01*
X138791000Y-60535662D01*
X139291000Y-60535662D01*
X139393812Y-60515211D01*
X139480973Y-60456973D01*
X139539211Y-60369812D01*
X139559662Y-60267000D01*
X139559662Y-60205500D01*
X143662579Y-60205500D01*
X144791364Y-61334286D01*
X144780527Y-61341527D01*
X144722289Y-61428688D01*
X144701838Y-61531500D01*
X144701838Y-61785500D01*
X144018000Y-61785500D01*
X143993369Y-61790472D01*
X143972846Y-61804353D01*
X143959197Y-61825031D01*
X143954501Y-61849358D01*
X143981030Y-66548358D01*
X143985863Y-66572300D01*
X143999628Y-66592901D01*
X144020229Y-66606666D01*
X144044529Y-66611500D01*
X144701838Y-66611500D01*
X144701838Y-67246500D01*
X144722289Y-67349312D01*
X144780527Y-67436473D01*
X144867688Y-67494711D01*
X144899500Y-67501039D01*
X144899501Y-68316500D01*
X144637182Y-68316500D01*
X144637182Y-68030090D01*
X144616731Y-67927278D01*
X144558493Y-67840117D01*
X144471332Y-67781879D01*
X144368520Y-67761428D01*
X143367760Y-67761428D01*
X143264948Y-67781879D01*
X143177787Y-67840117D01*
X143119549Y-67927278D01*
X143099098Y-68030090D01*
X143099098Y-69531230D01*
X143119549Y-69634042D01*
X143177787Y-69721203D01*
X143264948Y-69779441D01*
X143367760Y-69799892D01*
X144368520Y-69799892D01*
X144471332Y-69779441D01*
X144558493Y-69721203D01*
X144616731Y-69634042D01*
X144637182Y-69531230D01*
X144637182Y-69097500D01*
X145259792Y-69097500D01*
X145288000Y-69103111D01*
X145316209Y-69097500D01*
X145638608Y-69097500D01*
X145626789Y-69115188D01*
X145606338Y-69218000D01*
X145606338Y-69518000D01*
X145626789Y-69620812D01*
X145685027Y-69707973D01*
X145772188Y-69766211D01*
X145875000Y-69786662D01*
X146225000Y-69786662D01*
X146327812Y-69766211D01*
X146342346Y-69756500D01*
X146472984Y-69756500D01*
X146533928Y-69797221D01*
X146636740Y-69817672D01*
X147637500Y-69817672D01*
X147740312Y-69797221D01*
X147827473Y-69738983D01*
X147885711Y-69651822D01*
X147906162Y-69549010D01*
X147906162Y-69346445D01*
X148844000Y-69346445D01*
X148844000Y-69636433D01*
X148873002Y-69706450D01*
X148926591Y-69760038D01*
X148996607Y-69789040D01*
X149237065Y-69789040D01*
X149284690Y-69741415D01*
X149284690Y-69298820D01*
X148891625Y-69298820D01*
X148844000Y-69346445D01*
X147906162Y-69346445D01*
X147906162Y-68748910D01*
X147885711Y-68646098D01*
X147827473Y-68558937D01*
X147740312Y-68500699D01*
X147637500Y-68480248D01*
X146636740Y-68480248D01*
X146533928Y-68500699D01*
X146466781Y-68545564D01*
X146414973Y-68468027D01*
X146327812Y-68409789D01*
X146225000Y-68389338D01*
X146150467Y-68389338D01*
X146109204Y-68361767D01*
X148844000Y-68361767D01*
X148844000Y-68651755D01*
X148891625Y-68699380D01*
X149284690Y-68699380D01*
X149284690Y-68256785D01*
X149237065Y-68209160D01*
X148996607Y-68209160D01*
X148926591Y-68238162D01*
X148873002Y-68291750D01*
X148844000Y-68361767D01*
X146109204Y-68361767D01*
X146075365Y-68339157D01*
X145961460Y-68316500D01*
X145961458Y-68316500D01*
X145923000Y-68308850D01*
X145884542Y-68316500D01*
X145676500Y-68316500D01*
X145676500Y-67501039D01*
X145698363Y-67496690D01*
X146446240Y-67496690D01*
X146446240Y-67686983D01*
X146475242Y-67757000D01*
X146528831Y-67810588D01*
X146598847Y-67839590D01*
X146839305Y-67839590D01*
X146886930Y-67791965D01*
X146886930Y-67449065D01*
X147387310Y-67449065D01*
X147387310Y-67791965D01*
X147434935Y-67839590D01*
X147675393Y-67839590D01*
X147745409Y-67810588D01*
X147798998Y-67757000D01*
X147828000Y-67686983D01*
X147828000Y-67496690D01*
X147780375Y-67449065D01*
X147387310Y-67449065D01*
X146886930Y-67449065D01*
X146493865Y-67449065D01*
X146446240Y-67496690D01*
X145698363Y-67496690D01*
X145708312Y-67494711D01*
X145795473Y-67436473D01*
X145853711Y-67349312D01*
X145874162Y-67246500D01*
X145874162Y-66811097D01*
X146446240Y-66811097D01*
X146446240Y-67001390D01*
X146493865Y-67049015D01*
X146886930Y-67049015D01*
X146886930Y-66706115D01*
X147387310Y-66706115D01*
X147387310Y-67049015D01*
X147780375Y-67049015D01*
X147828000Y-67001390D01*
X147828000Y-66811097D01*
X147798998Y-66741080D01*
X147745409Y-66687492D01*
X147675393Y-66658490D01*
X147434935Y-66658490D01*
X147387310Y-66706115D01*
X146886930Y-66706115D01*
X146839305Y-66658490D01*
X146598847Y-66658490D01*
X146528831Y-66687492D01*
X146475242Y-66741080D01*
X146446240Y-66811097D01*
X145874162Y-66811097D01*
X145874162Y-66611500D01*
X146457529Y-66611500D01*
X146482160Y-66606528D01*
X146502683Y-66592647D01*
X146516332Y-66571969D01*
X146521028Y-66547642D01*
X146498039Y-62475675D01*
X146929100Y-62475675D01*
X146929100Y-62601945D01*
X146961969Y-62681297D01*
X147022702Y-62742031D01*
X147102055Y-62774900D01*
X147253325Y-62774900D01*
X147307300Y-62720925D01*
X147307300Y-62421700D01*
X147332700Y-62421700D01*
X147332700Y-62720925D01*
X147386675Y-62774900D01*
X147537945Y-62774900D01*
X147617298Y-62742031D01*
X147678031Y-62681297D01*
X147701000Y-62625845D01*
X147723969Y-62681297D01*
X147784702Y-62742031D01*
X147864055Y-62774900D01*
X148015325Y-62774900D01*
X148069300Y-62720925D01*
X148069300Y-62421700D01*
X148094700Y-62421700D01*
X148094700Y-62720925D01*
X148148675Y-62774900D01*
X148299945Y-62774900D01*
X148379298Y-62742031D01*
X148440031Y-62681297D01*
X148472900Y-62601945D01*
X148472900Y-62475675D01*
X148418925Y-62421700D01*
X148094700Y-62421700D01*
X148069300Y-62421700D01*
X147745075Y-62421700D01*
X147701000Y-62465775D01*
X147656925Y-62421700D01*
X147332700Y-62421700D01*
X147307300Y-62421700D01*
X146983075Y-62421700D01*
X146929100Y-62475675D01*
X146498039Y-62475675D01*
X146496694Y-62237500D01*
X146929100Y-62237500D01*
X146929100Y-62342325D01*
X146983075Y-62396300D01*
X147307300Y-62396300D01*
X147307300Y-62376300D01*
X147332700Y-62376300D01*
X147332700Y-62396300D01*
X147656925Y-62396300D01*
X147701000Y-62352225D01*
X147745075Y-62396300D01*
X148069300Y-62396300D01*
X148069300Y-62376300D01*
X148094700Y-62376300D01*
X148094700Y-62396300D01*
X148418925Y-62396300D01*
X148472900Y-62342325D01*
X148472900Y-62216055D01*
X148456053Y-62175383D01*
X148505211Y-62101812D01*
X148525662Y-61999000D01*
X148525662Y-61699000D01*
X148505211Y-61596188D01*
X148446973Y-61509027D01*
X148359812Y-61450789D01*
X148257000Y-61430338D01*
X147907000Y-61430338D01*
X147804188Y-61450789D01*
X147789654Y-61460500D01*
X147612346Y-61460500D01*
X147597812Y-61450789D01*
X147495000Y-61430338D01*
X147145000Y-61430338D01*
X147042188Y-61450789D01*
X147027654Y-61460500D01*
X145860039Y-61460500D01*
X145853711Y-61428688D01*
X145795473Y-61341527D01*
X145708312Y-61283289D01*
X145683485Y-61278350D01*
X145653959Y-61129914D01*
X145589767Y-61033845D01*
X145568093Y-61001407D01*
X145535654Y-60979733D01*
X144125270Y-59569349D01*
X144103593Y-59536907D01*
X143975085Y-59451041D01*
X143861763Y-59428500D01*
X143861762Y-59428500D01*
X143823500Y-59420889D01*
X143785238Y-59428500D01*
X139559662Y-59428500D01*
X139559662Y-59367000D01*
X139539211Y-59264188D01*
X139480973Y-59177027D01*
X139393812Y-59118789D01*
X139291000Y-59098338D01*
X138791000Y-59098338D01*
X138689641Y-59118500D01*
X137892359Y-59118500D01*
X137791000Y-59098338D01*
X137291000Y-59098338D01*
X137188188Y-59118789D01*
X137101027Y-59177027D01*
X137042789Y-59264188D01*
X137022338Y-59367000D01*
X137022338Y-59428500D01*
X135953500Y-59428500D01*
X135953500Y-58792625D01*
X135979500Y-58792625D01*
X135979500Y-59107893D01*
X136008502Y-59177909D01*
X136062090Y-59231498D01*
X136132107Y-59260500D01*
X136297375Y-59260500D01*
X136345000Y-59212875D01*
X136345000Y-58745000D01*
X136695000Y-58745000D01*
X136695000Y-59212875D01*
X136742625Y-59260500D01*
X136907893Y-59260500D01*
X136977910Y-59231498D01*
X137031498Y-59177909D01*
X137060500Y-59107893D01*
X137060500Y-58792625D01*
X137012875Y-58745000D01*
X136695000Y-58745000D01*
X136345000Y-58745000D01*
X136027125Y-58745000D01*
X135979500Y-58792625D01*
X135953500Y-58792625D01*
X135953500Y-57732107D01*
X135979500Y-57732107D01*
X135979500Y-58047375D01*
X136027125Y-58095000D01*
X136345000Y-58095000D01*
X136345000Y-57627125D01*
X136695000Y-57627125D01*
X136695000Y-58095000D01*
X137012875Y-58095000D01*
X137060500Y-58047375D01*
X137060500Y-57732107D01*
X137031498Y-57662091D01*
X136977910Y-57608502D01*
X136907893Y-57579500D01*
X136742625Y-57579500D01*
X136695000Y-57627125D01*
X136345000Y-57627125D01*
X136297375Y-57579500D01*
X136132107Y-57579500D01*
X136062090Y-57608502D01*
X136008502Y-57662091D01*
X135979500Y-57732107D01*
X135953500Y-57732107D01*
X135953500Y-57531000D01*
X135948666Y-57506700D01*
X135934901Y-57486099D01*
X135914300Y-57472334D01*
X135890000Y-57467500D01*
X133987031Y-57467500D01*
X133979211Y-57428188D01*
X133920973Y-57341027D01*
X133833812Y-57282789D01*
X133731000Y-57262338D01*
X131191000Y-57262338D01*
X131088188Y-57282789D01*
X131001027Y-57341027D01*
X130942789Y-57428188D01*
X130922338Y-57531000D01*
X127315900Y-57531000D01*
X127315900Y-57177638D01*
X127378018Y-56825345D01*
X127542851Y-56539849D01*
X127795386Y-56327946D01*
X128118431Y-56210367D01*
X128283793Y-56195900D01*
X151102362Y-56195900D01*
X151454655Y-56258018D01*
X151454655Y-56258018D01*
G37*
X151454655Y-56258018D02*
X151740151Y-56422851D01*
X151952054Y-56675386D01*
X152069633Y-56998431D01*
X152084100Y-57163793D01*
X152084100Y-65976500D01*
X150114000Y-65976500D01*
X150089700Y-65981334D01*
X150069099Y-65995099D01*
X150055334Y-66015700D01*
X150050500Y-66040000D01*
X150050500Y-66204649D01*
X149955827Y-66267907D01*
X149934152Y-66300346D01*
X149654170Y-66580328D01*
X149034500Y-66580328D01*
X148931688Y-66600779D01*
X148844527Y-66659017D01*
X148786289Y-66746178D01*
X148765838Y-66848990D01*
X148765838Y-67649090D01*
X148786289Y-67751902D01*
X148844527Y-67839063D01*
X148931688Y-67897301D01*
X149034500Y-67917752D01*
X150035260Y-67917752D01*
X150050500Y-67914721D01*
X150050500Y-68209160D01*
X149832695Y-68209160D01*
X149785070Y-68256785D01*
X149785070Y-68699380D01*
X150035260Y-68699380D01*
X150035260Y-69298820D01*
X149785070Y-69298820D01*
X149785070Y-69741415D01*
X149832695Y-69789040D01*
X150050500Y-69789040D01*
X150050500Y-70993000D01*
X150055334Y-71017300D01*
X150069099Y-71037901D01*
X150089700Y-71051666D01*
X150114000Y-71056500D01*
X152084101Y-71056500D01*
X152084101Y-79982356D01*
X152021981Y-80334656D01*
X151857149Y-80620151D01*
X151604613Y-80832054D01*
X151281570Y-80949633D01*
X151116207Y-80964100D01*
X128297638Y-80964100D01*
X127945344Y-80901981D01*
X127659849Y-80737149D01*
X127447946Y-80484613D01*
X127330367Y-80161570D01*
X127315900Y-79996207D01*
X127315900Y-71564500D01*
X128778000Y-71564500D01*
X128802300Y-71559666D01*
X128822901Y-71545901D01*
X128836666Y-71525300D01*
X128841500Y-71501000D01*
X128841500Y-70965695D01*
X136204960Y-70965695D01*
X136204960Y-71206153D01*
X136233962Y-71276169D01*
X136287550Y-71329758D01*
X136357567Y-71358760D01*
X136647555Y-71358760D01*
X136695180Y-71311135D01*
X136695180Y-70918070D01*
X137294620Y-70918070D01*
X137294620Y-71311135D01*
X137342245Y-71358760D01*
X137632233Y-71358760D01*
X137702250Y-71329758D01*
X137755838Y-71276169D01*
X137784840Y-71206153D01*
X137784840Y-70965695D01*
X137737215Y-70918070D01*
X137294620Y-70918070D01*
X136695180Y-70918070D01*
X136252585Y-70918070D01*
X136204960Y-70965695D01*
X128841500Y-70965695D01*
X128841500Y-70460205D01*
X128864567Y-70469760D01*
X129154555Y-70469760D01*
X129202180Y-70422135D01*
X129202180Y-70029070D01*
X129801620Y-70029070D01*
X129801620Y-70422135D01*
X129849245Y-70469760D01*
X130139233Y-70469760D01*
X130209250Y-70440758D01*
X130262838Y-70387169D01*
X130291840Y-70317153D01*
X130291840Y-70076695D01*
X130244215Y-70029070D01*
X129801620Y-70029070D01*
X129202180Y-70029070D01*
X128910400Y-70029070D01*
X128910400Y-69528690D01*
X129202180Y-69528690D01*
X129202180Y-69135625D01*
X129801620Y-69135625D01*
X129801620Y-69528690D01*
X130244215Y-69528690D01*
X130291840Y-69481065D01*
X130291840Y-69278500D01*
X130583248Y-69278500D01*
X130583248Y-70279260D01*
X130603699Y-70382072D01*
X130661937Y-70469233D01*
X130749098Y-70527471D01*
X130851910Y-70547922D01*
X131652010Y-70547922D01*
X131754822Y-70527471D01*
X131841983Y-70469233D01*
X131900221Y-70382072D01*
X131920672Y-70279260D01*
X131920672Y-70268521D01*
X131929188Y-70274211D01*
X132032000Y-70294662D01*
X132382000Y-70294662D01*
X132484812Y-70274211D01*
X132571973Y-70215973D01*
X132629679Y-70129607D01*
X136204960Y-70129607D01*
X136204960Y-70370065D01*
X136252585Y-70417690D01*
X136695180Y-70417690D01*
X136695180Y-70024625D01*
X137294620Y-70024625D01*
X137294620Y-70417690D01*
X137737215Y-70417690D01*
X137784840Y-70370065D01*
X137784840Y-70167500D01*
X138076248Y-70167500D01*
X138076248Y-71168260D01*
X138096699Y-71271072D01*
X138154937Y-71358233D01*
X138242098Y-71416471D01*
X138344910Y-71436922D01*
X139145010Y-71436922D01*
X139247822Y-71416471D01*
X139334983Y-71358233D01*
X139393221Y-71271072D01*
X139413672Y-71168260D01*
X139413672Y-71026500D01*
X139788654Y-71026500D01*
X139803188Y-71036211D01*
X139906000Y-71056662D01*
X140256000Y-71056662D01*
X140358812Y-71036211D01*
X140445973Y-70977973D01*
X140504211Y-70890812D01*
X140524662Y-70788000D01*
X140524662Y-70488000D01*
X140504211Y-70385188D01*
X140486045Y-70358000D01*
X140504211Y-70330812D01*
X140524662Y-70228000D01*
X140524662Y-69928000D01*
X140508197Y-69845225D01*
X140553530Y-69799892D01*
X141366240Y-69799892D01*
X141469052Y-69779441D01*
X141556213Y-69721203D01*
X141614451Y-69634042D01*
X141634902Y-69531230D01*
X141634902Y-68030090D01*
X141614451Y-67927278D01*
X141556213Y-67840117D01*
X141469052Y-67781879D01*
X141366240Y-67761428D01*
X140365480Y-67761428D01*
X140262668Y-67781879D01*
X140175507Y-67840117D01*
X140117269Y-67927278D01*
X140096818Y-68030090D01*
X140096818Y-69157760D01*
X139833347Y-69421232D01*
X139800908Y-69442907D01*
X139715042Y-69571415D01*
X139693687Y-69678773D01*
X139684889Y-69723000D01*
X139692500Y-69761262D01*
X139692500Y-69773238D01*
X139657789Y-69825188D01*
X139637338Y-69928000D01*
X139637338Y-70228000D01*
X139641615Y-70249500D01*
X139413672Y-70249500D01*
X139413672Y-70167500D01*
X139393221Y-70064688D01*
X139334983Y-69977527D01*
X139247822Y-69919289D01*
X139145010Y-69898838D01*
X138344910Y-69898838D01*
X138242098Y-69919289D01*
X138154937Y-69977527D01*
X138096699Y-70064688D01*
X138076248Y-70167500D01*
X137784840Y-70167500D01*
X137784840Y-70129607D01*
X137755838Y-70059591D01*
X137702250Y-70006002D01*
X137632233Y-69977000D01*
X137342245Y-69977000D01*
X137294620Y-70024625D01*
X136695180Y-70024625D01*
X136647555Y-69977000D01*
X136357567Y-69977000D01*
X136287550Y-70006002D01*
X136233962Y-70059591D01*
X136204960Y-70129607D01*
X132629679Y-70129607D01*
X132630211Y-70128812D01*
X132650662Y-70026000D01*
X132650662Y-69726000D01*
X132630211Y-69623188D01*
X132612045Y-69596000D01*
X132630211Y-69568812D01*
X132650662Y-69466000D01*
X132650662Y-69166000D01*
X132630211Y-69063188D01*
X132613309Y-69037892D01*
X132984240Y-69037892D01*
X133087052Y-69017441D01*
X133174213Y-68959203D01*
X133232451Y-68872042D01*
X133252902Y-68769230D01*
X133252902Y-67268090D01*
X133232451Y-67165278D01*
X133174213Y-67078117D01*
X133087052Y-67019879D01*
X132984240Y-66999428D01*
X131983480Y-66999428D01*
X131880668Y-67019879D01*
X131842510Y-67045375D01*
X131842510Y-66809618D01*
X131828746Y-66809618D01*
X131813508Y-66772831D01*
X131759920Y-66719242D01*
X131689903Y-66690240D01*
X131499610Y-66690240D01*
X131451985Y-66737865D01*
X131451985Y-67130930D01*
X131652010Y-67130930D01*
X131652010Y-67631310D01*
X131451985Y-67631310D01*
X131451985Y-68024375D01*
X131499610Y-68072000D01*
X131689903Y-68072000D01*
X131714818Y-68061680D01*
X131714818Y-68769230D01*
X131735269Y-68872042D01*
X131793507Y-68959203D01*
X131816500Y-68974566D01*
X131816500Y-69014231D01*
X131790046Y-69053824D01*
X131754822Y-69030289D01*
X131652010Y-69009838D01*
X130851910Y-69009838D01*
X130749098Y-69030289D01*
X130661937Y-69088527D01*
X130603699Y-69175688D01*
X130583248Y-69278500D01*
X130291840Y-69278500D01*
X130291840Y-69240607D01*
X130262838Y-69170591D01*
X130209250Y-69117002D01*
X130139233Y-69088000D01*
X129849245Y-69088000D01*
X129801620Y-69135625D01*
X129202180Y-69135625D01*
X129154555Y-69088000D01*
X128864567Y-69088000D01*
X128841500Y-69097555D01*
X128841500Y-68124581D01*
X128849178Y-68129711D01*
X128951990Y-68150162D01*
X129752090Y-68150162D01*
X129854902Y-68129711D01*
X129942063Y-68071473D01*
X130000301Y-67984312D01*
X130020752Y-67881500D01*
X130020752Y-67678935D01*
X130661410Y-67678935D01*
X130661410Y-67919393D01*
X130690412Y-67989409D01*
X130744000Y-68042998D01*
X130814017Y-68072000D01*
X131004310Y-68072000D01*
X131051935Y-68024375D01*
X131051935Y-67631310D01*
X130709035Y-67631310D01*
X130661410Y-67678935D01*
X130020752Y-67678935D01*
X130020752Y-66880740D01*
X130013215Y-66842847D01*
X130661410Y-66842847D01*
X130661410Y-67083305D01*
X130709035Y-67130930D01*
X131051935Y-67130930D01*
X131051935Y-66737865D01*
X131004310Y-66690240D01*
X130814017Y-66690240D01*
X130744000Y-66719242D01*
X130690412Y-66772831D01*
X130661410Y-66842847D01*
X130013215Y-66842847D01*
X130000301Y-66777928D01*
X129942063Y-66690767D01*
X129854902Y-66632529D01*
X129752090Y-66612078D01*
X129132419Y-66612078D01*
X128841500Y-66321159D01*
X128841500Y-65686305D01*
X132795010Y-65686305D01*
X132795010Y-66604943D01*
X132824012Y-66674959D01*
X132877600Y-66728548D01*
X132947617Y-66757550D01*
X133437630Y-66757550D01*
X133485255Y-66709925D01*
X133485255Y-65638680D01*
X134484745Y-65638680D01*
X134484745Y-66709925D01*
X134532370Y-66757550D01*
X135022383Y-66757550D01*
X135092400Y-66728548D01*
X135145988Y-66674959D01*
X135174990Y-66604943D01*
X135174990Y-65686305D01*
X135127365Y-65638680D01*
X134484745Y-65638680D01*
X133485255Y-65638680D01*
X132842635Y-65638680D01*
X132795010Y-65686305D01*
X128841500Y-65686305D01*
X128841500Y-65532000D01*
X128836666Y-65507700D01*
X128822901Y-65487099D01*
X128802300Y-65473334D01*
X128778000Y-65468500D01*
X127315900Y-65468500D01*
X127315900Y-63529417D01*
X132795010Y-63529417D01*
X132795010Y-64448055D01*
X132842635Y-64495680D01*
X133485255Y-64495680D01*
X133485255Y-63424435D01*
X134484745Y-63424435D01*
X134484745Y-64495680D01*
X135127365Y-64495680D01*
X135174990Y-64448055D01*
X135174990Y-63529417D01*
X135145988Y-63459401D01*
X135092400Y-63405812D01*
X135022383Y-63376810D01*
X134532370Y-63376810D01*
X134484745Y-63424435D01*
X133485255Y-63424435D01*
X133437630Y-63376810D01*
X132947617Y-63376810D01*
X132877600Y-63405812D01*
X132824012Y-63459401D01*
X132795010Y-63529417D01*
X127315900Y-63529417D01*
X127315900Y-57531000D01*
X130922338Y-57531000D01*
X130922338Y-60071000D01*
X130942789Y-60173812D01*
X131001027Y-60260973D01*
X131088188Y-60319211D01*
X131191000Y-60339662D01*
X132250338Y-60339662D01*
X132250338Y-60714000D01*
X132270500Y-60815359D01*
X132270500Y-61612641D01*
X132250338Y-61714000D01*
X132250338Y-62214000D01*
X132270789Y-62316812D01*
X132329027Y-62403973D01*
X132416188Y-62462211D01*
X132519000Y-62482662D01*
X133419000Y-62482662D01*
X133521812Y-62462211D01*
X133608973Y-62403973D01*
X133643365Y-62352500D01*
X135318500Y-62352500D01*
X135318500Y-66548000D01*
X135323334Y-66572300D01*
X135337099Y-66592901D01*
X135357700Y-66606666D01*
X135382000Y-66611500D01*
X136192838Y-66611500D01*
X136192838Y-66762540D01*
X135955950Y-66999428D01*
X134985760Y-66999428D01*
X134882948Y-67019879D01*
X134795787Y-67078117D01*
X134737549Y-67165278D01*
X134717098Y-67268090D01*
X134717098Y-68769230D01*
X134737549Y-68872042D01*
X134795787Y-68959203D01*
X134882948Y-69017441D01*
X134965500Y-69033862D01*
X134965500Y-69179647D01*
X134957789Y-69191188D01*
X134937338Y-69294000D01*
X134937338Y-69644000D01*
X134957789Y-69746812D01*
X135016027Y-69833973D01*
X135103188Y-69892211D01*
X135206000Y-69912662D01*
X135506000Y-69912662D01*
X135608812Y-69892211D01*
X135636000Y-69874045D01*
X135663188Y-69892211D01*
X135766000Y-69912662D01*
X136066000Y-69912662D01*
X136168812Y-69892211D01*
X136255973Y-69833973D01*
X136314211Y-69746812D01*
X136319802Y-69718707D01*
X136320324Y-69717925D01*
X136999089Y-69039162D01*
X137245090Y-69039162D01*
X137347902Y-69018711D01*
X137435063Y-68960473D01*
X137493301Y-68873312D01*
X137513752Y-68770500D01*
X137513752Y-68567935D01*
X138154410Y-68567935D01*
X138154410Y-68808393D01*
X138183412Y-68878409D01*
X138237000Y-68931998D01*
X138307017Y-68961000D01*
X138497310Y-68961000D01*
X138544935Y-68913375D01*
X138544935Y-68520310D01*
X138944985Y-68520310D01*
X138944985Y-68913375D01*
X138992610Y-68961000D01*
X139182903Y-68961000D01*
X139252920Y-68931998D01*
X139306508Y-68878409D01*
X139335510Y-68808393D01*
X139335510Y-68567935D01*
X139287885Y-68520310D01*
X138944985Y-68520310D01*
X138544935Y-68520310D01*
X138202035Y-68520310D01*
X138154410Y-68567935D01*
X137513752Y-68567935D01*
X137513752Y-67769740D01*
X137506215Y-67731847D01*
X138154410Y-67731847D01*
X138154410Y-67972305D01*
X138202035Y-68019930D01*
X138544935Y-68019930D01*
X138544935Y-67626865D01*
X138944985Y-67626865D01*
X138944985Y-68019930D01*
X139287885Y-68019930D01*
X139335510Y-67972305D01*
X139335510Y-67731847D01*
X139306508Y-67661831D01*
X139252920Y-67608242D01*
X139182903Y-67579240D01*
X138992610Y-67579240D01*
X138944985Y-67626865D01*
X138544935Y-67626865D01*
X138497310Y-67579240D01*
X138307017Y-67579240D01*
X138237000Y-67608242D01*
X138183412Y-67661831D01*
X138154410Y-67731847D01*
X137506215Y-67731847D01*
X137493301Y-67666928D01*
X137435063Y-67579767D01*
X137347902Y-67521529D01*
X137245090Y-67501078D01*
X137167304Y-67501078D01*
X137199312Y-67494711D01*
X137286473Y-67436473D01*
X137344711Y-67349312D01*
X137365162Y-67246500D01*
X137365162Y-66611500D01*
X137795000Y-66611500D01*
X137819300Y-66606666D01*
X137839901Y-66592901D01*
X137853666Y-66572300D01*
X137858500Y-66548000D01*
X137858500Y-66448305D01*
X141177010Y-66448305D01*
X141177010Y-67366943D01*
X141206012Y-67436959D01*
X141259600Y-67490548D01*
X141329617Y-67519550D01*
X141819630Y-67519550D01*
X141867255Y-67471925D01*
X141867255Y-66400680D01*
X142866745Y-66400680D01*
X142866745Y-67471925D01*
X142914370Y-67519550D01*
X143404383Y-67519550D01*
X143474400Y-67490548D01*
X143527988Y-67436959D01*
X143556990Y-67366943D01*
X143556990Y-66448305D01*
X143509365Y-66400680D01*
X142866745Y-66400680D01*
X141867255Y-66400680D01*
X141224635Y-66400680D01*
X141177010Y-66448305D01*
X137858500Y-66448305D01*
X137858500Y-64291417D01*
X141177010Y-64291417D01*
X141177010Y-65210055D01*
X141224635Y-65257680D01*
X141867255Y-65257680D01*
X141867255Y-64186435D01*
X142866745Y-64186435D01*
X142866745Y-65257680D01*
X143509365Y-65257680D01*
X143556990Y-65210055D01*
X143556990Y-64291417D01*
X143527988Y-64221401D01*
X143474400Y-64167812D01*
X143404383Y-64138810D01*
X142914370Y-64138810D01*
X142866745Y-64186435D01*
X141867255Y-64186435D01*
X141819630Y-64138810D01*
X141329617Y-64138810D01*
X141259600Y-64167812D01*
X141206012Y-64221401D01*
X141177010Y-64291417D01*
X137858500Y-64291417D01*
X137858500Y-62928502D01*
X138001000Y-62928502D01*
X138001000Y-62697500D01*
X138040875Y-62697500D01*
X138088500Y-62649875D01*
X138088500Y-62432000D01*
X138263500Y-62432000D01*
X138263500Y-62649875D01*
X138311125Y-62697500D01*
X138388893Y-62697500D01*
X138458909Y-62668498D01*
X138512498Y-62614910D01*
X138541500Y-62544893D01*
X138541500Y-62479625D01*
X138572500Y-62479625D01*
X138572500Y-62544893D01*
X138601502Y-62614910D01*
X138655091Y-62668498D01*
X138725107Y-62697500D01*
X138802875Y-62697500D01*
X138850500Y-62649875D01*
X138850500Y-62432000D01*
X139025500Y-62432000D01*
X139025500Y-62649875D01*
X139073125Y-62697500D01*
X139150893Y-62697500D01*
X139220909Y-62668498D01*
X139274498Y-62614910D01*
X139303500Y-62544893D01*
X139303500Y-62479625D01*
X139255875Y-62432000D01*
X139025500Y-62432000D01*
X138850500Y-62432000D01*
X138620125Y-62432000D01*
X138572500Y-62479625D01*
X138541500Y-62479625D01*
X138493875Y-62432000D01*
X138263500Y-62432000D01*
X138088500Y-62432000D01*
X138001000Y-62432000D01*
X138001000Y-62282000D01*
X138088500Y-62282000D01*
X138088500Y-62238049D01*
X138124000Y-62245111D01*
X138162262Y-62237500D01*
X138162263Y-62237500D01*
X138263500Y-62217363D01*
X138263500Y-62282000D01*
X138493875Y-62282000D01*
X138541500Y-62234375D01*
X138541500Y-62207000D01*
X138572500Y-62207000D01*
X138572500Y-62234375D01*
X138620125Y-62282000D01*
X138850500Y-62282000D01*
X138850500Y-62215662D01*
X139025500Y-62215662D01*
X139025500Y-62282000D01*
X139255875Y-62282000D01*
X139303500Y-62234375D01*
X139303500Y-62207000D01*
X139509502Y-62207000D01*
X139509502Y-62016500D01*
X139367837Y-62016500D01*
X139381662Y-61947000D01*
X139381662Y-61647000D01*
X139361211Y-61544188D01*
X139302973Y-61457027D01*
X139215812Y-61398789D01*
X139113000Y-61378338D01*
X138763000Y-61378338D01*
X138660188Y-61398789D01*
X138645654Y-61408500D01*
X138468346Y-61408500D01*
X138453812Y-61398789D01*
X138351000Y-61378338D01*
X138001000Y-61378338D01*
X137898188Y-61398789D01*
X137811027Y-61457027D01*
X137808706Y-61460500D01*
X137351039Y-61460500D01*
X137344711Y-61428688D01*
X137286473Y-61341527D01*
X137199312Y-61283289D01*
X137096500Y-61262838D01*
X136461500Y-61262838D01*
X136358688Y-61283289D01*
X136271527Y-61341527D01*
X136213289Y-61428688D01*
X136192838Y-61531500D01*
X136192838Y-61575500D01*
X133667500Y-61575500D01*
X133667500Y-60815359D01*
X133687662Y-60714000D01*
X133687662Y-60339662D01*
X133731000Y-60339662D01*
X133833812Y-60319211D01*
X133920973Y-60260973D01*
X133979211Y-60173812D01*
X133999662Y-60071000D01*
X133999662Y-59626500D01*
X134236520Y-59626500D01*
X134252157Y-59705110D01*
X134254042Y-59714585D01*
X134339908Y-59843093D01*
X134372346Y-59864768D01*
X134572232Y-60064654D01*
X134593907Y-60097093D01*
X134722415Y-60182959D01*
X134835737Y-60205500D01*
X134873999Y-60213111D01*
X134912261Y-60205500D01*
X137022338Y-60205500D01*
X137022338Y-60267000D01*
X137042789Y-60369812D01*
X137101027Y-60456973D01*
X137188188Y-60515211D01*
X137291000Y-60535662D01*
X137791000Y-60535662D01*
X137892359Y-60515500D01*
X138689641Y-60515500D01*
X138791000Y-60535662D01*
X139291000Y-60535662D01*
X139393812Y-60515211D01*
X139480973Y-60456973D01*
X139539211Y-60369812D01*
X139559662Y-60267000D01*
X139559662Y-60205500D01*
X143662579Y-60205500D01*
X144791364Y-61334286D01*
X144780527Y-61341527D01*
X144722289Y-61428688D01*
X144701838Y-61531500D01*
X144701838Y-61785500D01*
X144018000Y-61785500D01*
X143993369Y-61790472D01*
X143972846Y-61804353D01*
X143959197Y-61825031D01*
X143954501Y-61849358D01*
X143981030Y-66548358D01*
X143985863Y-66572300D01*
X143999628Y-66592901D01*
X144020229Y-66606666D01*
X144044529Y-66611500D01*
X144701838Y-66611500D01*
X144701838Y-67246500D01*
X144722289Y-67349312D01*
X144780527Y-67436473D01*
X144867688Y-67494711D01*
X144899500Y-67501039D01*
X144899501Y-68316500D01*
X144637182Y-68316500D01*
X144637182Y-68030090D01*
X144616731Y-67927278D01*
X144558493Y-67840117D01*
X144471332Y-67781879D01*
X144368520Y-67761428D01*
X143367760Y-67761428D01*
X143264948Y-67781879D01*
X143177787Y-67840117D01*
X143119549Y-67927278D01*
X143099098Y-68030090D01*
X143099098Y-69531230D01*
X143119549Y-69634042D01*
X143177787Y-69721203D01*
X143264948Y-69779441D01*
X143367760Y-69799892D01*
X144368520Y-69799892D01*
X144471332Y-69779441D01*
X144558493Y-69721203D01*
X144616731Y-69634042D01*
X144637182Y-69531230D01*
X144637182Y-69097500D01*
X145259792Y-69097500D01*
X145288000Y-69103111D01*
X145316209Y-69097500D01*
X145638608Y-69097500D01*
X145626789Y-69115188D01*
X145606338Y-69218000D01*
X145606338Y-69518000D01*
X145626789Y-69620812D01*
X145685027Y-69707973D01*
X145772188Y-69766211D01*
X145875000Y-69786662D01*
X146225000Y-69786662D01*
X146327812Y-69766211D01*
X146342346Y-69756500D01*
X146472984Y-69756500D01*
X146533928Y-69797221D01*
X146636740Y-69817672D01*
X147637500Y-69817672D01*
X147740312Y-69797221D01*
X147827473Y-69738983D01*
X147885711Y-69651822D01*
X147906162Y-69549010D01*
X147906162Y-69346445D01*
X148844000Y-69346445D01*
X148844000Y-69636433D01*
X148873002Y-69706450D01*
X148926591Y-69760038D01*
X148996607Y-69789040D01*
X149237065Y-69789040D01*
X149284690Y-69741415D01*
X149284690Y-69298820D01*
X148891625Y-69298820D01*
X148844000Y-69346445D01*
X147906162Y-69346445D01*
X147906162Y-68748910D01*
X147885711Y-68646098D01*
X147827473Y-68558937D01*
X147740312Y-68500699D01*
X147637500Y-68480248D01*
X146636740Y-68480248D01*
X146533928Y-68500699D01*
X146466781Y-68545564D01*
X146414973Y-68468027D01*
X146327812Y-68409789D01*
X146225000Y-68389338D01*
X146150467Y-68389338D01*
X146109204Y-68361767D01*
X148844000Y-68361767D01*
X148844000Y-68651755D01*
X148891625Y-68699380D01*
X149284690Y-68699380D01*
X149284690Y-68256785D01*
X149237065Y-68209160D01*
X148996607Y-68209160D01*
X148926591Y-68238162D01*
X148873002Y-68291750D01*
X148844000Y-68361767D01*
X146109204Y-68361767D01*
X146075365Y-68339157D01*
X145961460Y-68316500D01*
X145961458Y-68316500D01*
X145923000Y-68308850D01*
X145884542Y-68316500D01*
X145676500Y-68316500D01*
X145676500Y-67501039D01*
X145698363Y-67496690D01*
X146446240Y-67496690D01*
X146446240Y-67686983D01*
X146475242Y-67757000D01*
X146528831Y-67810588D01*
X146598847Y-67839590D01*
X146839305Y-67839590D01*
X146886930Y-67791965D01*
X146886930Y-67449065D01*
X147387310Y-67449065D01*
X147387310Y-67791965D01*
X147434935Y-67839590D01*
X147675393Y-67839590D01*
X147745409Y-67810588D01*
X147798998Y-67757000D01*
X147828000Y-67686983D01*
X147828000Y-67496690D01*
X147780375Y-67449065D01*
X147387310Y-67449065D01*
X146886930Y-67449065D01*
X146493865Y-67449065D01*
X146446240Y-67496690D01*
X145698363Y-67496690D01*
X145708312Y-67494711D01*
X145795473Y-67436473D01*
X145853711Y-67349312D01*
X145874162Y-67246500D01*
X145874162Y-66811097D01*
X146446240Y-66811097D01*
X146446240Y-67001390D01*
X146493865Y-67049015D01*
X146886930Y-67049015D01*
X146886930Y-66706115D01*
X147387310Y-66706115D01*
X147387310Y-67049015D01*
X147780375Y-67049015D01*
X147828000Y-67001390D01*
X147828000Y-66811097D01*
X147798998Y-66741080D01*
X147745409Y-66687492D01*
X147675393Y-66658490D01*
X147434935Y-66658490D01*
X147387310Y-66706115D01*
X146886930Y-66706115D01*
X146839305Y-66658490D01*
X146598847Y-66658490D01*
X146528831Y-66687492D01*
X146475242Y-66741080D01*
X146446240Y-66811097D01*
X145874162Y-66811097D01*
X145874162Y-66611500D01*
X146457529Y-66611500D01*
X146482160Y-66606528D01*
X146502683Y-66592647D01*
X146516332Y-66571969D01*
X146521028Y-66547642D01*
X146498039Y-62475675D01*
X146929100Y-62475675D01*
X146929100Y-62601945D01*
X146961969Y-62681297D01*
X147022702Y-62742031D01*
X147102055Y-62774900D01*
X147253325Y-62774900D01*
X147307300Y-62720925D01*
X147307300Y-62421700D01*
X147332700Y-62421700D01*
X147332700Y-62720925D01*
X147386675Y-62774900D01*
X147537945Y-62774900D01*
X147617298Y-62742031D01*
X147678031Y-62681297D01*
X147701000Y-62625845D01*
X147723969Y-62681297D01*
X147784702Y-62742031D01*
X147864055Y-62774900D01*
X148015325Y-62774900D01*
X148069300Y-62720925D01*
X148069300Y-62421700D01*
X148094700Y-62421700D01*
X148094700Y-62720925D01*
X148148675Y-62774900D01*
X148299945Y-62774900D01*
X148379298Y-62742031D01*
X148440031Y-62681297D01*
X148472900Y-62601945D01*
X148472900Y-62475675D01*
X148418925Y-62421700D01*
X148094700Y-62421700D01*
X148069300Y-62421700D01*
X147745075Y-62421700D01*
X147701000Y-62465775D01*
X147656925Y-62421700D01*
X147332700Y-62421700D01*
X147307300Y-62421700D01*
X146983075Y-62421700D01*
X146929100Y-62475675D01*
X146498039Y-62475675D01*
X146496694Y-62237500D01*
X146929100Y-62237500D01*
X146929100Y-62342325D01*
X146983075Y-62396300D01*
X147307300Y-62396300D01*
X147307300Y-62376300D01*
X147332700Y-62376300D01*
X147332700Y-62396300D01*
X147656925Y-62396300D01*
X147701000Y-62352225D01*
X147745075Y-62396300D01*
X148069300Y-62396300D01*
X148069300Y-62376300D01*
X148094700Y-62376300D01*
X148094700Y-62396300D01*
X148418925Y-62396300D01*
X148472900Y-62342325D01*
X148472900Y-62216055D01*
X148456053Y-62175383D01*
X148505211Y-62101812D01*
X148525662Y-61999000D01*
X148525662Y-61699000D01*
X148505211Y-61596188D01*
X148446973Y-61509027D01*
X148359812Y-61450789D01*
X148257000Y-61430338D01*
X147907000Y-61430338D01*
X147804188Y-61450789D01*
X147789654Y-61460500D01*
X147612346Y-61460500D01*
X147597812Y-61450789D01*
X147495000Y-61430338D01*
X147145000Y-61430338D01*
X147042188Y-61450789D01*
X147027654Y-61460500D01*
X145860039Y-61460500D01*
X145853711Y-61428688D01*
X145795473Y-61341527D01*
X145708312Y-61283289D01*
X145683485Y-61278350D01*
X145653959Y-61129914D01*
X145589767Y-61033845D01*
X145568093Y-61001407D01*
X145535654Y-60979733D01*
X144125270Y-59569349D01*
X144103593Y-59536907D01*
X143975085Y-59451041D01*
X143861763Y-59428500D01*
X143861762Y-59428500D01*
X143823500Y-59420889D01*
X143785238Y-59428500D01*
X139559662Y-59428500D01*
X139559662Y-59367000D01*
X139539211Y-59264188D01*
X139480973Y-59177027D01*
X139393812Y-59118789D01*
X139291000Y-59098338D01*
X138791000Y-59098338D01*
X138689641Y-59118500D01*
X137892359Y-59118500D01*
X137791000Y-59098338D01*
X137291000Y-59098338D01*
X137188188Y-59118789D01*
X137101027Y-59177027D01*
X137042789Y-59264188D01*
X137022338Y-59367000D01*
X137022338Y-59428500D01*
X135953500Y-59428500D01*
X135953500Y-58792625D01*
X135979500Y-58792625D01*
X135979500Y-59107893D01*
X136008502Y-59177909D01*
X136062090Y-59231498D01*
X136132107Y-59260500D01*
X136297375Y-59260500D01*
X136345000Y-59212875D01*
X136345000Y-58745000D01*
X136695000Y-58745000D01*
X136695000Y-59212875D01*
X136742625Y-59260500D01*
X136907893Y-59260500D01*
X136977910Y-59231498D01*
X137031498Y-59177909D01*
X137060500Y-59107893D01*
X137060500Y-58792625D01*
X137012875Y-58745000D01*
X136695000Y-58745000D01*
X136345000Y-58745000D01*
X136027125Y-58745000D01*
X135979500Y-58792625D01*
X135953500Y-58792625D01*
X135953500Y-57732107D01*
X135979500Y-57732107D01*
X135979500Y-58047375D01*
X136027125Y-58095000D01*
X136345000Y-58095000D01*
X136345000Y-57627125D01*
X136695000Y-57627125D01*
X136695000Y-58095000D01*
X137012875Y-58095000D01*
X137060500Y-58047375D01*
X137060500Y-57732107D01*
X137031498Y-57662091D01*
X136977910Y-57608502D01*
X136907893Y-57579500D01*
X136742625Y-57579500D01*
X136695000Y-57627125D01*
X136345000Y-57627125D01*
X136297375Y-57579500D01*
X136132107Y-57579500D01*
X136062090Y-57608502D01*
X136008502Y-57662091D01*
X135979500Y-57732107D01*
X135953500Y-57732107D01*
X135953500Y-57531000D01*
X135948666Y-57506700D01*
X135934901Y-57486099D01*
X135914300Y-57472334D01*
X135890000Y-57467500D01*
X133987031Y-57467500D01*
X133979211Y-57428188D01*
X133920973Y-57341027D01*
X133833812Y-57282789D01*
X133731000Y-57262338D01*
X131191000Y-57262338D01*
X131088188Y-57282789D01*
X131001027Y-57341027D01*
X130942789Y-57428188D01*
X130922338Y-57531000D01*
X127315900Y-57531000D01*
X127315900Y-57177638D01*
X127378018Y-56825345D01*
X127542851Y-56539849D01*
X127795386Y-56327946D01*
X128118431Y-56210367D01*
X128283793Y-56195900D01*
X151102362Y-56195900D01*
X151454655Y-56258018D01*
M02*
